<?xml version="1.0" encoding="UTF-8" standalone="no"?>
<svg
   xmlns:dc="http://purl.org/dc/elements/1.1/"
   xmlns:cc="http://creativecommons.org/ns#"
   xmlns:rdf="http://www.w3.org/1999/02/22-rdf-syntax-ns#"
   xmlns:svg="http://www.w3.org/2000/svg"
   xmlns="http://www.w3.org/2000/svg"
   xmlns:xlink="http://www.w3.org/1999/xlink"
   xmlns:sodipodi="http://sodipodi.sourceforge.net/DTD/sodipodi-0.dtd"
   xmlns:inkscape="http://www.inkscape.org/namespaces/inkscape"
   version="1.1"
   preserveAspectRatio="none"
   x="0px"
   y="0px"
   width="1024"
   height="1024"
   viewBox="0 0 1024 1024"
   id="svg2"
   inkscape:version="0.48.4 r9939"
   sodipodi:docname="bg.svg">
  <metadata
     id="metadata580">
    <rdf:RDF>
      <cc:Work
         rdf:about="">
        <dc:format>image/svg+xml</dc:format>
        <dc:type
           rdf:resource="http://purl.org/dc/dcmitype/StillImage" />
        <dc:title></dc:title>
      </cc:Work>
    </rdf:RDF>
  </metadata>
  <sodipodi:namedview
     pagecolor="#ffffff"
     bordercolor="#666666"
     borderopacity="1"
     objecttolerance="10"
     gridtolerance="10"
     guidetolerance="10"
     inkscape:pageopacity="0"
     inkscape:pageshadow="2"
     inkscape:window-width="1366"
     inkscape:window-height="744"
     id="namedview578"
     showgrid="false"
     inkscape:zoom="0.12977778"
     inkscape:cx="-1090.3629"
     inkscape:cy="-209.00421"
     inkscape:window-x="0"
     inkscape:window-y="24"
     inkscape:window-maximized="1"
     inkscape:current-layer="svg2"
     fit-margin-top="0"
     fit-margin-left="0"
     fit-margin-right="0"
     fit-margin-bottom="0" />
  <defs
     id="defs4">
    <g
       id="Layer0_0_FILL">
      <path
         d="m 912,-1023 -1024,0 0,1024 1024,0 0,-1024 z"
         id="path7"
         inkscape:connector-curvature="0"
         style="fill:#d5edf7;stroke:none" />
    </g>
    <g
       id="Layer0_1_FILL">
      <path
         d="m 753.9,-514.15 q -13.55,0 -23.15,8.9 -1.4,1.35 -2.65,2.8 -23.75,-20.7 -56.8,-20.7 -6.7,0 -13.05,0.9 -0.5,-0.5 -1,-0.95 -9.5,-8.95 -23.1,-8.95 -7.7,0 -14.2,3 l -0.05,0 q 0,-0.25 0.05,-0.5 0.1,-1.05 0.1,-2.05 0,-0.45 0,-0.75 0,-0.5 0,-1.05 -0.4,-11.95 -9.6,-20.5 -9.55,-8.9 -23.1,-8.9 -3,0 -5.7,0.45 -2.25,-7.1 -8.3,-12.7 -9.55,-8.9 -23.1,-8.9 -13.55,0 -23.1,8.9 -6.55,6.1 -8.65,13.95 -21.2,4.05 -37.85,18.1 -8.5,-6.2 -19.85,-6.2 -13.55,0 -23.15,8.9 -6.95,6.5 -8.85,15.05 -8.45,-1.65 -17.6,-1.65 -2.9,0 -5.8,0.2 -2.1,-7.7 -8.55,-13.75 -9.5,-8.9 -23.1,-8.9 -13.55,0 -23.15,8.9 -0.35,0.4 -0.6,0.7 -5.3,-8.3 -13.1,-15.6 -24.45,-22.75 -59,-22.8 -2.35,-5.35 -7.05,-9.7 -9.55,-8.9 -23.15,-8.9 -4.6,0 -8.6,1 -0.9,-11 -9.55,-19 -9.55,-8.9 -23.1,-8.9 -9.7,0 -17.2,4.5 -16.7,-7.7 -36.8,-7.7 -34.7,0 -59.15,22.8 -11.35,10.55 -17.4,23.1 -3.4,-0.65 -7.15,-0.65 -13.45,0 -23.1,8.85 -9,8.4 -9.45,20.25 -0.05,0.6 -0.05,1.3 0,1.3 0.1,2.6 0.45,5.4 2.8,10.2 -1.65,3.45 -2.4,7.3 -12.55,5.55 -23.2,15.5 -4.5,4.2 -8.2,8.8 -7.65,-4.55 -17.4,-4.55 -13.55,0 -23.05,8.9 -7.15,6.6 -8.95,15.25 -0.8,0 -1.6,0 -19.5,0 -35.75,7.3 -6.9,-3.45 -15.2,-3.45 -8.45,0 -15.3,3.5 l 0,251.85 1024,0 0,-248.6 q -0.4,-15.75 -11.6,-26.95 -10,-10 -23.5,-11.4 -2.15,-3.1 -4.95,-5.9 -11.65,-11.65 -28,-11.65 -7,0 -13.1,2.15 -8.2,2.8 -14.85,9.5 -9.3,9.25 -11.15,21.65 -10.65,1.3 -20.15,5.1 -2.35,-6.15 -7.7,-11.05 -9.5,-8.9 -23.1,-8.9 z"
         id="path10"
         inkscape:connector-curvature="0"
         style="fill:#e6f4fa;stroke:none" />
    </g>
    <g
       id="Layer0_2_FILL">
      <path
         d="m 1976,-1023 -1024,0 0,1024 1024,0 0,-1024 z"
         id="path13"
         inkscape:connector-curvature="0"
         style="fill:#d5edf7;stroke:none" />
    </g>
    <g
       id="Layer0_3_FILL">
      <path
         d="m 1976,-596.7 q -0.4,-15.75 -11.6,-26.95 -10,-10 -23.5,-11.4 -2.15,-3.1 -4.95,-5.9 -11.65,-11.65 -28,-11.65 -7,0 -13.1,2.15 -8.2,2.8 -14.85,9.5 -9.3,9.25 -11.15,21.65 -10.65,1.3 -20.15,5.1 -2.35,-6.15 -7.7,-11.05 -9.5,-8.9 -23.1,-8.9 -13.55,0 -23.15,8.9 -1.4,1.35 -2.65,2.8 -23.75,-20.7 -56.8,-20.7 -6.7,0 -13.05,0.9 -0.5,-0.5 -1,-0.95 -9.5,-8.95 -23.1,-8.95 -7.7,0 -14.2,3 l -0.05,0 q 0,-0.25 0.05,-0.5 0.1,-1.05 0.1,-2.05 0,-0.45 0,-0.75 0,-0.5 0,-1.05 -0.4,-11.95 -9.6,-20.5 -9.55,-8.9 -23.1,-8.9 -3,0 -5.7,0.45 -2.25,-7.1 -8.3,-12.7 -9.55,-8.9 -23.1,-8.9 -13.55,0 -23.1,8.9 -6.55,6.1 -8.65,13.95 -21.2,4.05 -37.85,18.1 -8.5,-6.2 -19.85,-6.2 -13.55,0 -23.15,8.9 -6.95,6.5 -8.85,15.05 -8.45,-1.65 -17.6,-1.65 -2.9,0 -5.8,0.2 -2.1,-7.7 -8.55,-13.75 -9.5,-8.9 -23.1,-8.9 -13.55,0 -23.15,8.9 -0.35,0.4 -0.6,0.7 -5.3,-8.3 -13.1,-15.6 -24.45,-22.75 -59,-22.8 -2.35,-5.35 -7.05,-9.7 -9.55,-8.9 -23.15,-8.9 -4.6,0 -8.6,1 -0.9,-11 -9.55,-19 -9.55,-8.9 -23.1,-8.9 -9.7,0 -17.2,4.5 -16.7,-7.7 -36.8,-7.7 -34.7,0 -59.15,22.8 -11.35,10.55 -17.4,23.1 -3.4,-0.65 -7.15,-0.65 -13.45,0 -23.1,8.85 -9,8.4 -9.45,20.25 -0.05,0.6 -0.05,1.3 0,1.3 0.1,2.6 0.45,5.4 2.8,10.2 -1.65,3.45 -2.4,7.3 -12.55,5.55 -23.2,15.5 -4.5,4.2 -8.2,8.8 -7.65,-4.55 -17.4,-4.55 -13.55,0 -23.05,8.9 -7.15,6.6 -8.95,15.25 -0.8,0 -1.6,0 -19.5,0 -35.75,7.3 -6.9,-3.45 -15.2,-3.45 -8.45,0 -15.3,3.5 l 0,251.85 1024,0 0,-248.6 z"
         id="path16"
         inkscape:connector-curvature="0"
         style="fill:#e6f4fa;stroke:none" />
    </g>
    <g
       id="Layer0_4_FILL">
      <path
         d="m 1976,-301 0,-169.55 -42.8,41.45 -144.6,-140.05 q -13.9,-11.6 -25.2,0 l -128.9,124.8 -44,-42.55 q -10.75,-9.15 -18.95,0 l -47.75,46.2 -66,-63.9 q -9.55,-8.5 -17.75,0 l -49.65,48.1 -130.2,-126.1 q -11.1,-11.05 -22.35,0 l -112.3,112.05 -50.3,-48.7 q -8.8,-8.85 -17.6,0 l -77.95,75.5 -27.7,-26.8 0,169.55 1024,0 z"
         id="path19"
         inkscape:connector-curvature="0"
         style="fill:#d5edf7;stroke:none" />
    </g>
    <g
       id="Layer0_5_FILL">
      <path
         d="m 1433.1,-361.95 q -56.45,26.65 -119.5,27.1 -62.95,0.55 -121.85,-20.85 -57.1,-20.9 -116.45,-34.9 -62.05,-14.5 -123.25,2.3 l 0,389.3 1023.95,0 0,-389.3 q -34.9,12.4 -68.55,27.8 -58.95,27 -120.55,4.25 -57.1,-21.15 -115.4,-38.6 -59.85,-17.85 -121.25,-5.75 -61.3,12.1 -117.15,38.65 z"
         id="path22"
         inkscape:connector-curvature="0"
         style="fill:#b6d9e7;stroke:none" />
    </g>
    <g
       id="Layer0_6_FILL">
      <path
         d="m 3040,1 0,-1024 -1024,0 0,1024 1024,0 z"
         id="path25"
         inkscape:connector-curvature="0"
         style="fill:#d5edf7;stroke:none" />
    </g>
    <g
       id="Layer0_7_FILL">
      <path
         d="m 3004.9,-555.05 q -2.15,-3.1 -4.95,-5.9 -11.65,-11.65 -28,-11.65 -7,0 -13.1,2.15 -8.2,2.8 -14.85,9.5 -9.3,9.25 -11.15,21.65 -10.65,1.3 -20.15,5.1 -2.35,-6.15 -7.7,-11.05 -9.5,-8.9 -23.1,-8.9 -13.55,0 -23.15,8.9 -1.4,1.35 -2.65,2.8 -23.75,-20.7 -56.8,-20.7 -6.7,0 -13.05,0.9 -0.5,-0.5 -1,-0.95 -9.5,-8.95 -23.1,-8.95 -7.7,0 -14.2,3 l -0.05,0 q 0,-0.25 0.05,-0.5 0.1,-1.05 0.1,-2.05 0,-0.45 0,-0.75 0,-0.5 0,-1.05 -0.4,-11.95 -9.6,-20.5 -9.55,-8.9 -23.1,-8.9 -3,0 -5.7,0.45 -2.25,-7.1 -8.3,-12.7 -9.55,-8.9 -23.1,-8.9 -13.55,0 -23.1,8.9 -6.55,6.1 -8.65,13.95 -21.2,4.05 -37.85,18.1 -8.5,-6.2 -19.85,-6.2 -13.55,0 -23.15,8.9 -6.95,6.5 -8.85,15.05 -8.45,-1.65 -17.6,-1.65 -2.9,0 -5.8,0.2 -2.1,-7.7 -8.55,-13.75 -9.5,-8.9 -23.1,-8.9 -13.55,0 -23.15,8.9 -0.35,0.4 -0.6,0.7 -5.3,-8.3 -13.1,-15.6 -24.45,-22.75 -59,-22.8 -2.35,-5.35 -7.05,-9.7 -9.55,-8.9 -23.15,-8.9 -4.6,0 -8.6,1 -0.9,-11 -9.55,-19 -9.55,-8.9 -23.1,-8.9 -9.7,0 -17.2,4.5 -16.7,-7.7 -36.8,-7.7 -34.7,0 -59.15,22.8 -11.35,10.55 -17.4,23.1 -3.4,-0.65 -7.15,-0.65 -13.45,0 -23.1,8.85 -9,8.4 -9.45,20.25 -0.05,0.6 -0.05,1.3 0,1.3 0.1,2.6 0.45,5.4 2.8,10.2 -1.65,3.45 -2.4,7.3 -12.55,5.55 -23.2,15.5 -4.5,4.2 -8.2,8.8 -7.65,-4.55 -17.4,-4.55 -13.55,0 -23.05,8.9 -7.15,6.6 -8.95,15.25 -0.8,0 -1.6,0 -19.5,0 -35.75,7.3 -6.9,-3.45 -15.2,-3.45 -8.45,0 -15.3,3.5 l 0,251.85 1024,0 0,-248.6 q -0.4,-15.75 -11.6,-26.95 -10,-10 -23.5,-11.4 z"
         id="path28"
         inkscape:connector-curvature="0"
         style="fill:#e6f4fa;stroke:none" />
    </g>
    <g
       id="Layer0_8_FILL">
      <path
         d="m 3039.95,-424.3 q -61.2,-16.8 -123.25,-2.3 -59.35,14 -116.45,34.9 -58.9,21.4 -121.85,20.85 -63.05,-0.45 -119.5,-27.1 -55.85,-26.55 -117.15,-38.65 -61.4,-12.1 -121.25,5.75 -58.3,17.45 -115.4,38.6 -61.6,22.75 -120.55,-4.25 -33.65,-15.4 -68.55,-27.8 l 0,389.3 1023.95,0 0,-389.3 z"
         id="path31"
         inkscape:connector-curvature="0"
         style="fill:#d5edf7;stroke:none" />
    </g>
    <g
       id="Layer0_9_FILL">
      <path
         d="m 2850.9,-356.25 q -57.1,-21.15 -115.4,-38.6 -59.85,-17.85 -121.25,-5.75 -61.3,12.1 -117.15,38.65 -56.45,26.65 -119.5,27.1 -62.95,0.55 -121.85,-20.85 -57.1,-20.9 -116.45,-34.9 -62.05,-14.5 -123.25,2.3 l 0,389.3 1023.95,0 0,-389.3 q -34.9,12.4 -68.55,27.8 -58.95,27 -120.55,4.25 z"
         id="path34"
         inkscape:connector-curvature="0"
         style="fill:#b6d9e7;stroke:none" />
    </g>
    <g
       id="Layer0_10_FILL">
      <path
         d="m 4104,-1023 -1024,0 0,1024 1024,0 0,-1024 z"
         id="path37"
         inkscape:connector-curvature="0"
         style="fill:#d5edf7;stroke:none" />
    </g>
    <g
       id="Layer0_11_FILL">
      <path
         d="m 4068.9,-635.05 q -2.15,-3.1 -4.95,-5.9 -11.65,-11.65 -28,-11.65 -7,0 -13.1,2.15 -8.2,2.8 -14.85,9.5 -9.3,9.25 -11.15,21.65 -10.65,1.3 -20.15,5.1 -2.35,-6.15 -7.7,-11.05 -9.5,-8.9 -23.1,-8.9 -13.55,0 -23.15,8.9 -1.4,1.35 -2.65,2.8 -23.75,-20.7 -56.8,-20.7 -6.7,0 -13.05,0.9 -0.5,-0.5 -1,-0.95 -9.5,-8.95 -23.1,-8.95 -7.7,0 -14.2,3 l -0.05,0 q 0,-0.25 0.05,-0.5 0.1,-1.05 0.1,-2.05 0,-0.45 0,-0.75 0,-0.5 0,-1.05 -0.4,-11.95 -9.6,-20.5 -9.55,-8.9 -23.1,-8.9 -3,0 -5.7,0.45 -2.25,-7.1 -8.3,-12.7 -9.55,-8.9 -23.1,-8.9 -13.55,0 -23.1,8.9 -6.55,6.1 -8.65,13.95 -21.2,4.05 -37.85,18.1 -8.5,-6.2 -19.85,-6.2 -13.55,0 -23.15,8.9 -6.95,6.5 -8.85,15.05 -8.45,-1.65 -17.6,-1.65 -2.9,0 -5.8,0.2 -2.1,-7.7 -8.55,-13.75 -9.5,-8.9 -23.1,-8.9 -13.55,0 -23.15,8.9 -0.35,0.4 -0.6,0.7 -5.3,-8.3 -13.1,-15.6 -24.45,-22.75 -59,-22.8 -2.35,-5.35 -7.05,-9.7 -9.55,-8.9 -23.15,-8.9 -4.6,0 -8.6,1 -0.9,-11 -9.55,-19 -9.55,-8.9 -23.1,-8.9 -9.7,0 -17.2,4.5 -16.7,-7.7 -36.8,-7.7 -34.7,0 -59.15,22.8 -11.35,10.55 -17.4,23.1 -3.4,-0.65 -7.15,-0.65 -13.45,0 -23.1,8.85 -9,8.4 -9.45,20.25 -0.05,0.6 -0.05,1.3 0,1.3 0.1,2.6 0.45,5.4 2.8,10.2 -1.65,3.45 -2.4,7.3 -12.55,5.55 -23.2,15.5 -4.5,4.2 -8.2,8.8 -7.65,-4.55 -17.4,-4.55 -13.55,0 -23.05,8.9 -7.15,6.6 -8.95,15.25 -0.8,0 -1.6,0 -19.5,0 -35.75,7.3 -6.9,-3.45 -15.2,-3.45 -8.45,0 -15.3,3.5 l 0,291.85 1024,0 0,-288.6 q -0.4,-15.75 -11.6,-26.95 -10,-10 -23.5,-11.4 z"
         id="path40"
         inkscape:connector-curvature="0"
         style="fill:#e6f4fa;stroke:none" />
    </g>
    <g
       id="Layer0_12_FILL">
      <path
         d="m 3261.9,-409.3 -16.65,-1.8 -32.2,61.05 197.7,21.55 -38.4,-121.35 -11.3,-1.2 -12.2,-97.95 -35.05,-3.8 -51.9,143.5 m 426,-121.85 -13.05,0 -15.35,85.8 -17,0 -7.15,38.25 -25.85,-78.85 -36.7,3.85 -11.25,61.7 -15.8,1.65 -11.4,109.2 84.3,-8.85 -0.05,0.3 170.25,0 -22.55,-67.6 -19.3,0 -17.05,-207.9 -28.45,0 -13.6,62.45 m 309.6,84.2 -36.7,3.85 -11.25,61.7 -15.8,1.65 -11.4,109.2 171.75,-18.05 -41.8,-33.9 -13.55,1.45 -41.25,-125.9 z"
         id="path43"
         inkscape:connector-curvature="0"
         style="fill:#d5edf7;stroke:none" />
    </g>
    <g
       id="Layer0_13_FILL">
      <path
         d="m 4035.45,-360.5 q -58.95,27 -120.55,4.25 -57.1,-21.15 -115.4,-38.6 -59.85,-17.85 -121.25,-5.75 -61.3,12.1 -117.15,38.65 -56.45,26.65 -119.5,27.1 -62.95,0.55 -121.85,-20.85 -57.1,-20.9 -116.45,-34.9 -62.05,-14.5 -123.25,2.3 l 0,389.3 1023.95,0 0,-389.3 q -34.9,12.4 -68.55,27.8 z"
         id="path46"
         inkscape:connector-curvature="0"
         style="fill:#b6d9e7;stroke:none" />
    </g>
    <g
       id="Layer0_14_FILL">
      <path
         d="m 912,1065 0,-1024 -1024,0 0,1024 1024,0 z"
         id="path49"
         inkscape:connector-curvature="0"
         style="fill:#d5edf7;stroke:none" />
    </g>
    <g
       id="Layer0_15_FILL">
      <path
         d="m 830.85,533.55 q -8.2,2.8 -14.85,9.5 -9.3,9.25 -11.15,21.65 -10.65,1.3 -20.15,5.1 -2.35,-6.15 -7.7,-11.05 -9.5,-8.9 -23.1,-8.9 -13.55,0 -23.15,8.9 -1.4,1.35 -2.65,2.8 -23.75,-20.7 -56.8,-20.7 -6.7,0 -13.05,0.9 -0.5,-0.5 -1,-0.95 -9.5,-8.95 -23.1,-8.95 -7.7,0 -14.2,3 l -0.05,0 q 0,-0.25 0.05,-0.5 0.1,-1.05 0.1,-2.05 0,-0.45 0,-0.75 0,-0.5 0,-1.05 -0.4,-11.95 -9.6,-20.5 -9.55,-8.9 -23.1,-8.9 -3,0 -5.7,0.45 -2.25,-7.1 -8.3,-12.7 -9.55,-8.9 -23.1,-8.9 -13.55,0 -23.1,8.9 -6.55,6.1 -8.65,13.95 -21.2,4.05 -37.85,18.1 -8.5,-6.2 -19.85,-6.2 -13.55,0 -23.15,8.9 -6.95,6.5 -8.85,15.05 -8.45,-1.65 -17.6,-1.65 -2.9,0 -5.8,0.2 -2.1,-7.7 -8.55,-13.75 -9.5,-8.9 -23.1,-8.9 -13.55,0 -23.15,8.9 -0.35,0.4 -0.6,0.7 -5.3,-8.3 -13.1,-15.6 -24.45,-22.75 -59,-22.8 -2.35,-5.35 -7.05,-9.7 -9.55,-8.9 -23.15,-8.9 -4.6,0 -8.6,1 -0.9,-11 -9.55,-19 -9.55,-8.9 -23.1,-8.9 -9.7,0 -17.2,4.5 -16.7,-7.7 -36.8,-7.7 -34.7,0 -59.15,22.8 -11.35,10.55 -17.4,23.1 -3.4,-0.65 -7.15,-0.65 -13.45,0 -23.1,8.85 -9,8.4 -9.45,20.25 -0.05,0.6 -0.05,1.3 0,1.3 0.1,2.6 0.45,5.4 2.8,10.2 -1.65,3.45 -2.4,7.3 -12.55,5.55 -23.2,15.5 -4.5,4.2 -8.2,8.8 -7.65,-4.55 -17.4,-4.55 -13.55,0 -23.05,8.9 -7.15,6.6 -8.95,15.25 -0.8,0 -1.6,0 -19.5,0 -35.75,7.3 -6.9,-3.45 -15.2,-3.45 -8.45,0 -15.3,3.5 l 0,251.85 1024,0 0,-248.6 q -0.4,-15.75 -11.6,-26.95 -10,-10 -23.5,-11.4 -2.15,-3.1 -4.95,-5.9 -11.65,-11.65 -28,-11.65 -7,0 -13.1,2.15 z"
         id="path52"
         inkscape:connector-curvature="0"
         style="fill:#e6f4fa;stroke:none" />
    </g>
    <g
       id="Layer0_16_FILL">
      <path
         d="m 1976,1065 0,-1024 -1024,0 0,1024 1024,0 z"
         id="path55"
         inkscape:connector-curvature="0"
         style="fill:#d5edf7;stroke:none" />
    </g>
    <g
       id="Layer0_17_FILL">
      <path
         d="m 1976,467.3 q -0.4,-15.75 -11.6,-26.95 -10,-10 -23.5,-11.4 -2.15,-3.1 -4.95,-5.9 -11.65,-11.65 -28,-11.65 -7,0 -13.1,2.15 -8.2,2.8 -14.85,9.5 -9.3,9.25 -11.15,21.65 -10.65,1.3 -20.15,5.1 -2.35,-6.15 -7.7,-11.05 -9.5,-8.9 -23.1,-8.9 -13.55,0 -23.15,8.9 -1.4,1.35 -2.65,2.8 -23.75,-20.7 -56.8,-20.7 -6.7,0 -13.05,0.9 -0.5,-0.5 -1,-0.95 -9.5,-8.95 -23.1,-8.95 -7.7,0 -14.2,3 l -0.05,0 q 0,-0.25 0.05,-0.5 0.1,-1.05 0.1,-2.05 0,-0.45 0,-0.75 0,-0.5 0,-1.05 -0.4,-11.95 -9.6,-20.5 -9.55,-8.9 -23.1,-8.9 -3,0 -5.7,0.45 -2.25,-7.1 -8.3,-12.7 -9.55,-8.9 -23.1,-8.9 -13.55,0 -23.1,8.9 -6.55,6.1 -8.65,13.95 -21.2,4.05 -37.85,18.1 -8.5,-6.2 -19.85,-6.2 -13.55,0 -23.15,8.9 -6.95,6.5 -8.85,15.05 -8.45,-1.65 -17.6,-1.65 -2.9,0 -5.8,0.2 -2.1,-7.7 -8.55,-13.75 -9.5,-8.9 -23.1,-8.9 -13.55,0 -23.15,8.9 -0.35,0.4 -0.6,0.7 -5.3,-8.3 -13.1,-15.6 -24.45,-22.75 -59,-22.8 -2.35,-5.35 -7.05,-9.7 -9.55,-8.9 -23.15,-8.9 -4.6,0 -8.6,1 -0.9,-11 -9.55,-19 -9.55,-8.9 -23.1,-8.9 -9.7,0 -17.2,4.5 -16.7,-7.7 -36.8,-7.7 -34.7,0 -59.15,22.8 -11.35,10.55 -17.4,23.1 -3.4,-0.65 -7.15,-0.65 -13.45,0 -23.1,8.85 -9,8.4 -9.45,20.25 -0.05,0.6 -0.05,1.3 0,1.3 0.1,2.6 0.45,5.4 2.8,10.2 -1.65,3.45 -2.4,7.3 -12.55,5.55 -23.2,15.5 -4.5,4.2 -8.2,8.8 -7.65,-4.55 -17.4,-4.55 -13.55,0 -23.05,8.9 -7.15,6.6 -8.95,15.25 -0.8,0 -1.6,0 -19.5,0 -35.75,7.3 -6.9,-3.45 -15.2,-3.45 -8.45,0 -15.3,3.5 l 0,251.85 1024,0 0,-248.6 z"
         id="path58"
         inkscape:connector-curvature="0"
         style="fill:#e6f4fa;stroke:none" />
    </g>
    <g
       id="Layer0_18_FILL">
      <path
         d="m 1976,763 0,-169.55 -42.8,41.45 -144.6,-140.05 q -13.9,-11.6 -25.2,0 l -128.9,124.8 -44,-42.55 q -10.75,-9.15 -18.95,0 l -47.75,46.2 -66,-63.9 q -9.55,-8.5 -17.75,0 l -49.65,48.1 -130.2,-126.1 q -11.1,-11.05 -22.35,0 l -112.3,112.05 -50.3,-48.7 q -8.8,-8.85 -17.6,0 l -77.95,75.5 -27.7,-26.8 0,169.55 1024,0 z"
         id="path61"
         inkscape:connector-curvature="0"
         style="fill:#d5edf7;stroke:none" />
    </g>
    <g
       id="Layer0_19_FILL">
      <path
         d="m 1433.1,702.05 q -56.45,26.65 -119.5,27.1 -62.95,0.55 -121.85,-20.85 -57.1,-20.9 -116.45,-34.9 -62.05,-14.5 -123.25,2.3 l 0,389.3 1023.95,0 0,-389.3 q -34.9,12.4 -68.55,27.8 -58.95,27 -120.55,4.25 -57.1,-21.15 -115.4,-38.6 -59.85,-17.85 -121.25,-5.75 -61.3,12.1 -117.15,38.65 z"
         id="path64"
         inkscape:connector-curvature="0"
         style="fill:#b6d9e7;stroke:none" />
    </g>
    <g
       id="Layer0_20_FILL">
      <path
         d="m 3040,1065 0,-1024 -1024,0 0,1024 1024,0 z"
         id="path67"
         inkscape:connector-curvature="0"
         style="fill:#d5edf7;stroke:none" />
    </g>
    <g
       id="Layer0_21_FILL">
      <path
         d="m 2786.25,501.75 q -0.5,-0.5 -1,-0.95 -9.5,-8.95 -23.1,-8.95 -7.7,0 -14.2,3 l -0.05,0 q 0,-0.25 0.05,-0.5 0.1,-1.05 0.1,-2.05 0,-0.45 0,-0.75 0,-0.5 0,-1.05 -0.4,-11.95 -9.6,-20.5 -9.55,-8.9 -23.1,-8.9 -3,0 -5.7,0.45 -2.25,-7.1 -8.3,-12.7 -9.55,-8.9 -23.1,-8.9 -13.55,0 -23.1,8.9 -6.55,6.1 -8.65,13.95 -21.2,4.05 -37.85,18.1 -8.5,-6.2 -19.85,-6.2 -13.55,0 -23.15,8.9 -6.95,6.5 -8.85,15.05 -8.45,-1.65 -17.6,-1.65 -2.9,0 -5.8,0.2 -2.1,-7.7 -8.55,-13.75 -9.5,-8.9 -23.1,-8.9 -13.55,0 -23.15,8.9 -0.35,0.4 -0.6,0.7 -5.3,-8.3 -13.1,-15.6 -24.45,-22.75 -59,-22.8 -2.35,-5.35 -7.05,-9.7 -9.55,-8.9 -23.15,-8.9 -4.6,0 -8.6,1 -0.9,-11 -9.55,-19 -9.55,-8.9 -23.1,-8.9 -9.7,0 -17.2,4.5 -16.7,-7.7 -36.8,-7.7 -34.7,0 -59.15,22.8 -11.35,10.55 -17.4,23.1 -3.4,-0.65 -7.15,-0.65 -13.45,0 -23.1,8.85 -9,8.4 -9.45,20.25 -0.05,0.6 -0.05,1.3 0,1.3 0.1,2.6 0.45,5.4 2.8,10.2 -1.65,3.45 -2.4,7.3 -12.55,5.55 -23.2,15.5 -4.5,4.2 -8.2,8.8 -7.65,-4.55 -17.4,-4.55 -13.55,0 -23.05,8.9 -7.15,6.6 -8.95,15.25 -0.8,0 -1.6,0 -19.5,0 -35.75,7.3 -6.9,-3.45 -15.2,-3.45 -8.45,0 -15.3,3.5 l 0,251.85 1024,0 0,-248.6 q -0.4,-15.75 -11.6,-26.95 -10,-10 -23.5,-11.4 -2.15,-3.1 -4.95,-5.9 -11.65,-11.65 -28,-11.65 -7,0 -13.1,2.15 -8.2,2.8 -14.85,9.5 -9.3,9.25 -11.15,21.65 -10.65,1.3 -20.15,5.1 -2.35,-6.15 -7.7,-11.05 -9.5,-8.9 -23.1,-8.9 -13.55,0 -23.15,8.9 -1.4,1.35 -2.65,2.8 -23.75,-20.7 -56.8,-20.7 -6.7,0 -13.05,0.9 z"
         id="path70"
         inkscape:connector-curvature="0"
         style="fill:#e6f4fa;stroke:none" />
    </g>
    <g
       id="Layer0_22_FILL">
      <path
         d="m 2800.25,672.3 q -58.9,21.4 -121.85,20.85 -63.05,-0.45 -119.5,-27.1 -55.85,-26.55 -117.15,-38.65 -61.4,-12.1 -121.25,5.75 -58.3,17.45 -115.4,38.6 -61.6,22.75 -120.55,-4.25 -33.65,-15.4 -68.55,-27.8 l 0,389.3 1023.95,0 0,-389.3 q -61.2,-16.8 -123.25,-2.3 -59.35,14 -116.45,34.9 z"
         id="path73"
         inkscape:connector-curvature="0"
         style="fill:#d5edf7;stroke:none" />
    </g>
    <g
       id="Layer0_22_MEMBER_0_FILL">
      <path
         d="m 2278,575 q -2.3,2.3 -2.4,5.5 l 0,44.2 q 0.1,3.2 2.4,5.5 1.65,1.6 3.7,2.15 l 0,17.2 q 0,0.75 0.55,1.35 0.6,0.55 1.4,0.55 0.8,0 1.35,-0.55 0.6,-0.6 0.6,-1.35 l 0,-17.2 q 2.15,-0.45 3.8,-2.15 2.3,-2.3 2.35,-5.5 l 0,-44.2 q -0.05,-3.2 -2.35,-5.5 -2.35,-2.35 -5.7,-2.35 -3.35,0 -5.7,2.35 m -17.55,13.55 q -3.35,0 -5.7,2.35 -2.3,2.3 -2.4,5.55 l 0,44.15 q 0.1,3.2 2.4,5.5 1.65,1.6 3.7,2.15 l 0,17.2 q 0,0.75 0.55,1.35 0.6,0.55 1.4,0.55 0.8,0 1.35,-0.55 0.6,-0.6 0.6,-1.35 l 0,-17.15 q 2.15,-0.5 3.8,-2.2 2.3,-2.3 2.35,-5.5 l 0,-44.15 q -0.05,-3.25 -2.35,-5.55 -2.35,-2.35 -5.7,-2.35 z"
         id="path76"
         inkscape:connector-curvature="0"
         style="fill:#d5edf7;stroke:none" />
    </g>
    <g
       id="Layer0_23_FILL">
      <path
         d="m 2735.5,669.15 q -59.85,-17.85 -121.25,-5.75 -61.3,12.1 -117.15,38.65 -56.45,26.65 -119.5,27.1 -62.95,0.55 -121.85,-20.85 -57.1,-20.9 -116.45,-34.9 -62.05,-14.5 -123.25,2.3 l 0,389.3 1023.95,0 0,-389.3 q -34.9,12.4 -68.55,27.8 -58.95,27 -120.55,4.25 -57.1,-21.15 -115.4,-38.6 z"
         id="path79"
         inkscape:connector-curvature="0"
         style="fill:#b6d9e7;stroke:none" />
    </g>
    <g
       id="Layer0_24_FILL">
      <path
         d="m 4104,1065 0,-1024 -1024,0 0,1024 1024,0 z"
         id="path82"
         inkscape:connector-curvature="0"
         style="fill:#d5edf7;stroke:none" />
    </g>
    <g
       id="Layer0_25_FILL">
      <path
         d="m 4068.9,428.95 q -2.15,-3.1 -4.95,-5.9 -11.65,-11.65 -28,-11.65 -7,0 -13.1,2.15 -8.2,2.8 -14.85,9.5 -9.3,9.25 -11.15,21.65 -10.65,1.3 -20.15,5.1 -2.35,-6.15 -7.7,-11.05 -9.5,-8.9 -23.1,-8.9 -13.55,0 -23.15,8.9 -1.4,1.35 -2.65,2.8 -23.75,-20.7 -56.8,-20.7 -6.7,0 -13.05,0.9 -0.5,-0.5 -1,-0.95 -9.5,-8.95 -23.1,-8.95 -7.7,0 -14.2,3 l -0.05,0 q 0,-0.25 0.05,-0.5 0.1,-1.05 0.1,-2.05 0,-0.45 0,-0.75 0,-0.5 0,-1.05 -0.4,-11.95 -9.6,-20.5 -9.55,-8.9 -23.1,-8.9 -3,0 -5.7,0.45 -2.25,-7.1 -8.3,-12.7 -9.55,-8.9 -23.1,-8.9 -13.55,0 -23.1,8.9 -6.55,6.1 -8.65,13.95 -21.2,4.05 -37.85,18.1 -8.5,-6.2 -19.85,-6.2 -13.55,0 -23.15,8.9 -6.95,6.5 -8.85,15.05 -8.45,-1.65 -17.6,-1.65 -2.9,0 -5.8,0.2 -2.1,-7.7 -8.55,-13.75 -9.5,-8.9 -23.1,-8.9 -13.55,0 -23.15,8.9 -0.35,0.4 -0.6,0.7 -5.3,-8.3 -13.1,-15.6 -24.45,-22.75 -59,-22.8 -2.35,-5.35 -7.05,-9.7 -9.55,-8.9 -23.15,-8.9 -4.6,0 -8.6,1 -0.9,-11 -9.55,-19 -9.55,-8.9 -23.1,-8.9 -9.7,0 -17.2,4.5 -16.7,-7.7 -36.8,-7.7 -34.7,0 -59.15,22.8 -11.35,10.55 -17.4,23.1 -3.4,-0.65 -7.15,-0.65 -13.45,0 -23.1,8.85 -9,8.4 -9.45,20.25 -0.05,0.6 -0.05,1.3 0,1.3 0.1,2.6 0.45,5.4 2.8,10.2 -1.65,3.45 -2.4,7.3 -12.55,5.55 -23.2,15.5 -4.5,4.2 -8.2,8.8 -7.65,-4.55 -17.4,-4.55 -13.55,0 -23.05,8.9 -7.15,6.6 -8.95,15.25 -0.8,0 -1.6,0 -19.5,0 -35.75,7.3 -6.9,-3.45 -15.2,-3.45 -8.45,0 -15.3,3.5 l 0,291.85 1024,0 0,-288.6 q -0.4,-15.75 -11.6,-26.95 -10,-10 -23.5,-11.4 z"
         id="path85"
         inkscape:connector-curvature="0"
         style="fill:#e6f4fa;stroke:none" />
    </g>
    <g
       id="Layer0_26_FILL">
      <path
         d="m 3561.55,643.6 -15.8,1.65 -11.4,109.2 84.3,-8.85 -0.05,0.3 170.25,0 -22.55,-67.6 -19.3,0 -17.05,-207.9 -28.45,0 -13.6,62.45 -13.05,0 -15.35,85.8 -17,0 -7.15,38.25 -25.85,-78.85 -36.7,3.85 -11.25,61.7 m -212.7,-128.6 -35.05,-3.8 -51.9,143.5 -16.65,-1.8 -32.2,61.05 197.7,21.55 -38.4,-121.35 -11.3,-1.2 -12.2,-97.95 m 600.7,167.6 -15.8,1.65 -11.4,109.2 171.75,-18.05 -41.8,-33.9 -13.55,1.45 -41.25,-125.9 -36.7,3.85 -11.25,61.7 z"
         id="path88"
         inkscape:connector-curvature="0"
         style="fill:#d5edf7;stroke:none" />
    </g>
    <g
       id="Layer0_27_FILL">
      <path
         d="m 4035.45,703.5 q -58.95,27 -120.55,4.25 -57.1,-21.15 -115.4,-38.6 -59.85,-17.85 -121.25,-5.75 -61.3,12.1 -117.15,38.65 -56.45,26.65 -119.5,27.1 -62.95,0.55 -121.85,-20.85 -57.1,-20.9 -116.45,-34.9 -62.05,-14.5 -123.25,2.3 l 0,389.3 1023.95,0 0,-389.3 q -34.9,12.4 -68.55,27.8 z"
         id="path91"
         inkscape:connector-curvature="0"
         style="fill:#b6d9e7;stroke:none" />
    </g>
    <g
       id="Layer0_28_MEMBER_0_FILL">
      <path
         d="m 3288,686.4 17.05,0.95 -2.35,21.95 14.65,0 -2.15,-21.35 19.8,1.05 -25.85,-84.5 -21.15,81.9 z"
         id="path94"
         inkscape:connector-curvature="0"
         style="fill:#b6d9e7;stroke:none" />
    </g>
    <g
       id="Layer0_28_MEMBER_1_FILL">
      <path
         d="m 3149.25,671.3 -1.4,-14.05 13,0.7 -16.95,-55.45 -13.9,53.75 11.2,0.65 -1.55,14.4 9.6,0 z"
         id="path97"
         inkscape:connector-curvature="0"
         style="fill:#b6d9e7;stroke:none" />
    </g>
    <g
       id="Layer0_28_MEMBER_2_FILL">
      <path
         d="m 3367.9,715.25 13,0.7 -16.95,-55.45 -13.9,53.75 11.2,0.65 -1.55,14.4 9.6,0 -1.4,-14.05 z"
         id="path100"
         inkscape:connector-curvature="0"
         style="fill:#b6d9e7;stroke:none" />
    </g>
    <g
       id="Layer0_28_MEMBER_3_FILL">
      <path
         d="m 3949.85,721.3 9.6,0 -1.4,-14.05 13,0.7 -16.95,-55.45 -13.9,53.75 11.2,0.65 -1.55,14.4 z"
         id="path103"
         inkscape:connector-curvature="0"
         style="fill:#b6d9e7;stroke:none" />
    </g>
    <g
       id="Layer0_28_MEMBER_4_FILL">
      <path
         d="m 4020.2,686.4 17.05,0.95 -2.35,21.95 14.65,0 -2.15,-21.35 19.8,1.05 -25.85,-84.5 -21.15,81.9 z"
         id="path106"
         inkscape:connector-curvature="0"
         style="fill:#b6d9e7;stroke:none" />
    </g>
    <g
       id="Layer0_29_FILL">
      <path
         d="m 2701.75,437.4 q -0.25,-11.6 -8.5,-19.85 -8.55,-8.5 -20.6,-8.5 l -0.05,0 q -12.05,0 -20.55,8.5 -8.3,8.25 -8.55,19.85 l 0,159.2 q 0.2,11.65 8.55,19.95 6,6 13.75,7.8 l 0,61.8 q 0,2.85 2.1,4.95 2.05,2.05 4.95,2.05 2.9,0 4.95,-2.05 2.05,-2.1 2.05,-4.95 l 0,-61.9 q 7.5,-1.85 13.4,-7.7 8.3,-8.3 8.5,-19.95 l 0,-159.2 z"
         id="path109"
         inkscape:connector-curvature="0"
         style="fill:#b6d9e7;stroke:none" />
    </g>
    <g
       id="Layer0_30_FILL">
      <path
         d="m 2766.95,523.05 q -0.15,-8.45 -6.2,-14.45 -6.2,-6.2 -15,-6.2 -8.8,0 -15,6.2 -6.05,6 -6.2,14.45 l 0,115.95 q 0.15,8.45 6.2,14.5 4.4,4.4 10.05,5.7 l 0,45 q 0,2.05 1.5,3.6 1.5,1.5 3.6,1.5 2.1,0 3.6,-1.5 1.5,-1.55 1.5,-3.6 l 0,-45.1 q 5.45,-1.35 9.75,-5.6 6.05,-6.05 6.2,-14.5 l 0,-115.95 z"
         id="path112"
         inkscape:connector-curvature="0"
         style="fill:#b6d9e7;stroke:none" />
    </g>
    <g
       id="Layer0_31_FILL">
      <path
         d="m 2144.25,575.4 q -3.75,3.75 -3.85,9 l 0,72.2 q 0.1,5.25 3.85,9 2.75,2.75 6.25,3.55 l 0,28.05 q 0,1.25 0.95,2.25 0.95,0.9 2.25,0.9 1.3,0 2.25,-0.9 0.9,-1 0.9,-2.25 l 0,-28.1 q 3.4,-0.85 6.1,-3.5 3.75,-3.75 3.85,-9 l 0,-72.2 q -0.1,-5.25 -3.85,-9 -3.85,-3.85 -9.35,-3.85 -5.5,0 -9.35,3.85 z"
         id="path115"
         inkscape:connector-curvature="0"
         style="fill:#b6d9e7;stroke:none" />
    </g>
    <g
       id="Layer0_32_FILL">
      <path
         d="m 2115.6,545.55 q -5.5,0 -9.35,3.85 -3.75,3.75 -3.85,9 l 0,72.2 q 0.1,5.25 3.85,9 2.75,2.75 6.25,3.55 l 0,28.05 q 0,1.25 0.95,2.25 0.95,0.9 2.25,0.9 1.3,0 2.25,-0.9 0.9,-1 0.9,-2.25 l 0,-28.1 q 3.4,-0.85 6.1,-3.5 3.75,-3.75 3.85,-9 l 0,-72.2 q -0.1,-5.25 -3.85,-9 -3.85,-3.85 -9.35,-3.85 z"
         id="path118"
         inkscape:connector-curvature="0"
         style="fill:#b6d9e7;stroke:none" />
    </g>
    <g
       id="Layer0_33_FILL">
      <path
         d="m 912.05,2132.9 0,-1024 -1024,0 0,1024 1024,0 z"
         id="path121"
         inkscape:connector-curvature="0"
         style="fill:#d5edf7;stroke:none" />
    </g>
    <g
       id="Layer0_34_FILL">
      <path
         d="m 36.2,1580.6 q 0,1.3 0.1,2.6 0.45,5.4 2.8,10.2 -1.65,3.45 -2.4,7.3 -12.55,5.55 -23.2,15.5 -4.5,4.2 -8.2,8.8 -7.65,-4.55 -17.4,-4.55 -13.55,0 -23.05,8.9 -7.15,6.6 -8.95,15.25 -0.8,0 -1.6,0 -19.5,0 -35.75,7.3 -6.9,-3.45 -15.2,-3.45 -8.45,0 -15.3,3.5 l 0,251.85 1024,0 0,-248.6 q -0.4,-15.75 -11.6,-26.95 -10,-10 -23.5,-11.4 -2.15,-3.1 -4.95,-5.9 -11.65,-11.65 -28,-11.65 -7,0 -13.1,2.15 -8.2,2.8 -14.85,9.5 -9.3,9.25 -11.15,21.65 -10.65,1.3 -20.15,5.1 -2.35,-6.15 -7.7,-11.05 -9.5,-8.9 -23.1,-8.9 -13.55,0 -23.15,8.9 -1.4,1.35 -2.65,2.8 -23.75,-20.7 -56.8,-20.7 -6.7,0 -13.05,0.9 -0.5,-0.5 -1,-0.95 -9.5,-8.95 -23.1,-8.95 -7.7,0 -14.2,3 l -0.05,0 q 0,-0.25 0.05,-0.5 0.1,-1.05 0.1,-2.05 0,-0.45 0,-0.75 0,-0.5 0,-1.05 -0.4,-11.95 -9.6,-20.5 -9.55,-8.9 -23.1,-8.9 -3,0 -5.7,0.45 -2.25,-7.1 -8.3,-12.7 -9.55,-8.9 -23.1,-8.9 -13.55,0 -23.1,8.9 -6.55,6.1 -8.65,13.95 -21.2,4.05 -37.85,18.1 -8.5,-6.2 -19.85,-6.2 -13.55,0 -23.15,8.9 -6.95,6.5 -8.85,15.05 -8.45,-1.65 -17.6,-1.65 -2.9,0 -5.8,0.2 -2.1,-7.7 -8.55,-13.75 -9.5,-8.9 -23.1,-8.9 -13.55,0 -23.15,8.9 -0.35,0.4 -0.6,0.7 -5.3,-8.3 -13.1,-15.6 -24.45,-22.75 -59,-22.8 -2.35,-5.35 -7.05,-9.7 -9.55,-8.9 -23.15,-8.9 -4.6,0 -8.6,1 -0.9,-11 -9.55,-19 -9.55,-8.9 -23.1,-8.9 -9.7,0 -17.2,4.5 -16.7,-7.7 -36.8,-7.7 -34.7,0 -59.15,22.8 -11.35,10.55 -17.4,23.1 -3.4,-0.65 -7.15,-0.65 -13.45,0 -23.1,8.85 -9,8.4 -9.45,20.25 -0.05,0.6 -0.05,1.3 z"
         id="path124"
         inkscape:connector-curvature="0"
         style="fill:#e6f4fa;stroke:none" />
    </g>
    <g
       id="Layer0_35_FILL">
      <path
         d="m 1976.05,1108.9 -1024,0 0,1024 1024,0 0,-1024 z"
         id="path127"
         inkscape:connector-curvature="0"
         style="fill:#d5edf7;stroke:none" />
    </g>
    <g
       id="Layer0_36_FILL">
      <path
         d="m 1414.05,1472.05 q -5.3,-8.3 -13.1,-15.6 -24.45,-22.75 -59,-22.8 -2.35,-5.35 -7.05,-9.7 -9.55,-8.9 -23.15,-8.9 -4.6,0 -8.6,1 -0.9,-11 -9.55,-19 -9.55,-8.9 -23.1,-8.9 -9.7,0 -17.2,4.5 -16.7,-7.7 -36.8,-7.7 -34.7,0 -59.15,22.8 -11.35,10.55 -17.4,23.1 -3.4,-0.65 -7.15,-0.65 -13.45,0 -23.1,8.85 -9,8.4 -9.45,20.25 -0.05,0.6 -0.05,1.3 0,1.3 0.1,2.6 0.45,5.4 2.8,10.2 -1.65,3.45 -2.4,7.3 -12.55,5.55 -23.2,15.5 -4.5,4.2 -8.2,8.8 -7.65,-4.55 -17.4,-4.55 -13.55,0 -23.05,8.9 -7.15,6.6 -8.95,15.25 -0.8,0 -1.6,0 -19.5,0 -35.75,7.3 -6.9,-3.45 -15.2,-3.45 -8.45,0 -15.3,3.5 l 0,251.85 1024,0 0,-248.6 q -0.4,-15.75 -11.6,-26.95 -10,-10 -23.5,-11.4 -2.15,-3.1 -4.95,-5.9 -11.65,-11.65 -28,-11.65 -7,0 -13.1,2.15 -8.2,2.8 -14.85,9.5 -9.3,9.25 -11.15,21.65 -10.65,1.3 -20.15,5.1 -2.35,-6.15 -7.7,-11.05 -9.5,-8.9 -23.1,-8.9 -13.55,0 -23.15,8.9 -1.4,1.35 -2.65,2.8 -23.75,-20.7 -56.8,-20.7 -6.7,0 -13.05,0.9 -0.5,-0.5 -1,-0.95 -9.5,-8.95 -23.1,-8.95 -7.7,0 -14.2,3 l -0.05,0 q 0,-0.25 0.05,-0.5 0.1,-1.05 0.1,-2.05 0,-0.45 0,-0.75 0,-0.5 0,-1.05 -0.4,-11.95 -9.6,-20.5 -9.55,-8.9 -23.1,-8.9 -3,0 -5.7,0.45 -2.25,-7.1 -8.3,-12.7 -9.55,-8.9 -23.1,-8.9 -13.55,0 -23.1,8.9 -6.55,6.1 -8.65,13.95 -21.2,4.05 -37.85,18.1 -8.5,-6.2 -19.85,-6.2 -13.55,0 -23.15,8.9 -6.95,6.5 -8.85,15.05 -8.45,-1.65 -17.6,-1.65 -2.9,0 -5.8,0.2 -2.1,-7.7 -8.55,-13.75 -9.5,-8.9 -23.1,-8.9 -13.55,0 -23.15,8.9 -0.35,0.4 -0.6,0.7 z"
         id="path130"
         inkscape:connector-curvature="0"
         style="fill:#e6f4fa;stroke:none" />
    </g>
    <g
       id="Layer0_37_FILL">
      <path
         d="m 1075.3,1652.65 q -8.8,-8.85 -17.6,0 l -77.95,75.5 -27.7,-26.8 0,169.55 1024,0 0,-169.55 -42.8,41.45 -144.6,-140.05 q -13.9,-11.6 -25.2,0 l -128.9,124.8 -44,-42.55 q -10.75,-9.15 -18.95,0 l -47.75,46.2 -66,-63.9 q -9.55,-8.5 -17.75,0 l -49.65,48.1 -130.2,-126.1 q -11.1,-11.05 -22.35,0 l -112.3,112.05 -50.3,-48.7 z"
         id="path133"
         inkscape:connector-curvature="0"
         style="fill:#ecdebc;stroke:none" />
    </g>
    <g
       id="Layer0_38_FILL">
      <path
         d="m 1558.15,1769.35 50.55,0 -69.35,-103.1 18.8,103.1 m -35.15,-12.15 -7.8,0 0,12.15 6.15,0 1.65,-12.15 z"
         id="path136"
         inkscape:connector-curvature="0"
         style="fill:#c4b592;stroke:none" />
      <path
         d="m 1507.75,1757.2 0,12.15 7.45,0 0,-12.15 -7.45,0 z"
         id="path138"
         inkscape:connector-curvature="0"
         style="fill:#83775c;stroke:none" />
      <path
         d="m 1507.75,1769.35 0,-12.15 7.45,0 7.8,0 -1.65,12.15 36.8,0 -18.8,-103.1 -64.85,103.1 33.25,0 z"
         id="path140"
         inkscape:connector-curvature="0"
         style="fill:#d0c4aa;stroke:none" />
    </g>
    <g
       id="Layer0_39_FILL">
      <path
         d="m 1491,1800.3 -111,-165 30.05,165 80.95,0 m -137.15,-19.4 -12.5,0 0,19.4 9.8,0 2.7,-19.4 z"
         id="path143"
         inkscape:connector-curvature="0"
         style="fill:#c4b592;stroke:none" />
      <path
         d="m 1341.35,1780.9 -11.95,0 0,19.4 11.95,0 0,-19.4 z"
         id="path145"
         inkscape:connector-curvature="0"
         style="fill:#83775c;stroke:none" />
      <path
         d="m 1341.35,1780.9 12.5,0 -2.7,19.4 58.9,0 -30.05,-165 -103.8,165 53.2,0 0,-19.4 11.95,0 z"
         id="path147"
         inkscape:connector-curvature="0"
         style="fill:#d0c4aa;stroke:none" />
    </g>
    <g
       id="Layer0_40_FILL">
      <path
         d="m 3040.05,2132.9 0,-1024 -1024,0 0,1024 1024,0 z"
         id="path150"
         inkscape:connector-curvature="0"
         style="fill:#d5edf7;stroke:none" />
    </g>
    <g
       id="Layer0_41_FILL">
      <path
         d="m 2655.2,1516.75 q -6.55,6.1 -8.65,13.95 -21.2,4.05 -37.85,18.1 -8.5,-6.2 -19.85,-6.2 -13.55,0 -23.15,8.9 -6.95,6.5 -8.85,15.05 -8.45,-1.65 -17.6,-1.65 -2.9,0 -5.8,0.2 -2.1,-7.7 -8.55,-13.75 -9.5,-8.9 -23.1,-8.9 -13.55,0 -23.15,8.9 -0.35,0.4 -0.6,0.7 -5.3,-8.3 -13.1,-15.6 -24.45,-22.75 -59,-22.8 -2.35,-5.35 -7.05,-9.7 -9.55,-8.9 -23.15,-8.9 -4.6,0 -8.6,1 -0.9,-11 -9.55,-19 -9.55,-8.9 -23.1,-8.9 -9.7,0 -17.2,4.5 -16.7,-7.7 -36.8,-7.7 -34.7,0 -59.15,22.8 -11.35,10.55 -17.4,23.1 -3.4,-0.65 -7.15,-0.65 -13.45,0 -23.1,8.85 -9,8.4 -9.45,20.25 -0.05,0.6 -0.05,1.3 0,1.3 0.1,2.6 0.45,5.4 2.8,10.2 -1.65,3.45 -2.4,7.3 -12.55,5.55 -23.2,15.5 -4.5,4.2 -8.2,8.8 -7.65,-4.55 -17.4,-4.55 -13.55,0 -23.05,8.9 -7.15,6.6 -8.95,15.25 -0.8,0 -1.6,0 -19.5,0 -35.75,7.3 -6.9,-3.45 -15.2,-3.45 -8.45,0 -15.3,3.5 l 0,251.85 1024,0 0,-248.6 q -0.4,-15.75 -11.6,-26.95 -10,-10 -23.5,-11.4 -2.15,-3.1 -4.95,-5.9 -11.65,-11.65 -28,-11.65 -7,0 -13.1,2.15 -8.2,2.8 -14.85,9.5 -9.3,9.25 -11.15,21.65 -10.65,1.3 -20.15,5.1 -2.35,-6.15 -7.7,-11.05 -9.5,-8.9 -23.1,-8.9 -13.55,0 -23.15,8.9 -1.4,1.35 -2.65,2.8 -23.75,-20.7 -56.8,-20.7 -6.7,0 -13.05,0.9 -0.5,-0.5 -1,-0.95 -9.5,-8.95 -23.1,-8.95 -7.7,0 -14.2,3 l -0.05,0 q 0,-0.25 0.05,-0.5 0.1,-1.05 0.1,-2.05 0,-0.45 0,-0.75 0,-0.5 0,-1.05 -0.4,-11.95 -9.6,-20.5 -9.55,-8.9 -23.1,-8.9 -3,0 -5.7,0.45 -2.25,-7.1 -8.3,-12.7 -9.55,-8.9 -23.1,-8.9 -13.55,0 -23.1,8.9 z"
         id="path153"
         inkscape:connector-curvature="0"
         style="fill:#e6f4fa;stroke:none" />
    </g>
    <g
       id="Layer0_42_FILL">
      <path
         d="m 2746.05,1726.05 q -2,0.45 -4.25,0.45 -2.1,0 -4.05,-0.45 l 0,30.85 q 0,1.7 1.25,2.9 1.2,1.25 2.95,1.25 1.7,0 2.9,-1.25 1.2,-1.2 1.2,-2.9 l 0,-30.85 z"
         id="path156"
         inkscape:connector-curvature="0"
         style="fill:#9c7b53;stroke:none" />
      <path
         d="m 2746.05,1720.25 q -2,0.5 -4.25,0.5 -2.1,0 -4.05,-0.45 l 0,5.75 q 1.95,0.45 4.05,0.45 2.25,0 4.25,-0.45 l 0,-5.8 z"
         id="path158"
         inkscape:connector-curvature="0"
         style="fill:#876844;stroke:none" />
      <path
         d="m 2754,1715.7 q 4.9,-4.9 5.05,-11.8 l 0,-21.35 q -0.2,6.75 -5.05,11.6 -3.5,3.5 -7.95,4.6 -2,0.45 -4.25,0.45 -2.1,0 -4.05,-0.4 -4.6,-1.1 -8.15,-4.65 -4.85,-4.85 -5.05,-11.6 l 0,21.35 q 0.15,6.9 5.05,11.8 3.55,3.55 8.15,4.6 1.95,0.45 4.05,0.45 2.25,0 4.25,-0.5 4.45,-1.1 7.95,-4.55 z"
         id="path160"
         inkscape:connector-curvature="0"
         style="fill:#597b3e;stroke:none" />
      <path
         d="m 2759.05,1609.7 q -0.15,-6.85 -5.05,-11.75 -5.05,-5.05 -12.2,-5.05 -7.15,0 -12.2,5.05 -4.9,4.9 -5.05,11.75 l 0,72.85 q 0.2,6.75 5.05,11.6 3.55,3.55 8.15,4.65 1.95,0.4 4.05,0.4 2.25,0 4.25,-0.45 4.45,-1.1 7.95,-4.6 4.85,-4.85 5.05,-11.6 l 0,-72.85 z"
         id="path162"
         inkscape:connector-curvature="0"
         style="fill:#648c44;stroke:none" />
    </g>
    <g
       id="Layer0_43_FILL">
      <path
         d="m 2125.55,1735 0,17.6 q 0,1 0.75,1.7 0.65,0.7 1.65,0.7 0.95,0 1.65,-0.7 0.7,-0.7 0.7,-1.7 l 0,-17.6 q -1.15,0.25 -2.4,0.25 -1.2,0 -2.35,-0.25 z"
         id="path165"
         inkscape:connector-curvature="0"
         style="fill:#9c7b53;stroke:none" />
      <path
         d="m 2130.3,1731.7 q -1.15,0.25 -2.4,0.25 -1.2,0 -2.35,-0.2 l 0,3.25 q 1.15,0.25 2.35,0.25 1.25,0 2.4,-0.25 l 0,-3.3 z"
         id="path167"
         inkscape:connector-curvature="0"
         style="fill:#876844;stroke:none" />
      <path
         d="m 2120.9,1729.1 q 2,2.05 4.65,2.65 1.15,0.2 2.35,0.2 1.25,0 2.4,-0.25 2.55,-0.65 4.55,-2.6 2.8,-2.8 2.85,-6.75 l 0,-12.2 q -0.1,3.85 -2.85,6.6 -2,2 -4.55,2.65 -1.15,0.25 -2.4,0.25 -1.2,0 -2.35,-0.2 -2.65,-0.65 -4.65,-2.7 -2.8,-2.75 -2.9,-6.6 l 0,12.2 q 0.1,3.95 2.9,6.75 z"
         id="path169"
         inkscape:connector-curvature="0"
         style="fill:#597b3e;stroke:none" />
      <path
         d="m 2137.7,1668.5 q -0.05,-3.85 -2.85,-6.65 -2.9,-2.95 -6.95,-2.95 -4.1,0 -7,2.95 -2.8,2.8 -2.9,6.65 l 0,41.65 q 0.1,3.85 2.9,6.6 2,2.05 4.65,2.7 1.15,0.2 2.35,0.2 1.25,0 2.4,-0.25 2.55,-0.65 4.55,-2.65 2.75,-2.75 2.85,-6.6 l 0,-41.65 z"
         id="path171"
         inkscape:connector-curvature="0"
         style="fill:#648c44;stroke:none" />
    </g>
    <g
       id="Layer0_44_FILL">
      <path
         d="m 4104.05,1108.9 -1024,0 0,1024 1024,0 0,-1024 z"
         id="path174"
         inkscape:connector-curvature="0"
         style="fill:#d5edf7;stroke:none" />
    </g>
    <g
       id="Layer0_45_FILL">
      <path
         d="m 4036,1479.3 q -7,0 -13.1,2.15 -8.2,2.8 -14.85,9.5 -9.3,9.25 -11.15,21.65 -10.65,1.3 -20.15,5.1 -2.35,-6.15 -7.7,-11.05 -9.5,-8.9 -23.1,-8.9 -13.55,0 -23.15,8.9 -1.4,1.35 -2.65,2.8 -23.75,-20.7 -56.8,-20.7 -6.7,0 -13.05,0.9 -0.5,-0.5 -1,-0.95 -9.5,-8.95 -23.1,-8.95 -7.7,0 -14.2,3 l -0.05,0 q 0,-0.25 0.05,-0.5 0.1,-1.05 0.1,-2.05 0,-0.45 0,-0.75 0,-0.5 0,-1.05 -0.4,-11.95 -9.6,-20.5 -9.55,-8.9 -23.1,-8.9 -3,0 -5.7,0.45 -2.25,-7.1 -8.3,-12.7 -9.55,-8.9 -23.1,-8.9 -13.55,0 -23.1,8.9 -6.55,6.1 -8.65,13.95 -21.2,4.05 -37.85,18.1 -8.5,-6.2 -19.85,-6.2 -13.55,0 -23.15,8.9 -6.95,6.5 -8.85,15.05 -8.45,-1.65 -17.6,-1.65 -2.9,0 -5.8,0.2 -2.1,-7.7 -8.55,-13.75 -9.5,-8.9 -23.1,-8.9 -13.55,0 -23.15,8.9 -0.35,0.4 -0.6,0.7 -5.3,-8.3 -13.1,-15.6 -24.45,-22.75 -59,-22.8 -2.35,-5.35 -7.05,-9.7 -9.55,-8.9 -23.15,-8.9 -4.6,0 -8.6,1 -0.9,-11 -9.55,-19 -9.55,-8.9 -23.1,-8.9 -9.7,0 -17.2,4.5 -16.7,-7.7 -36.8,-7.7 -34.7,0 -59.15,22.8 -11.35,10.55 -17.4,23.1 -3.4,-0.65 -7.15,-0.65 -13.45,0 -23.1,8.85 -9,8.4 -9.45,20.25 -0.05,0.6 -0.05,1.3 0,1.3 0.1,2.6 0.45,5.4 2.8,10.2 -1.65,3.45 -2.4,7.3 -12.55,5.55 -23.2,15.5 -4.5,4.2 -8.2,8.8 -7.65,-4.55 -17.4,-4.55 -13.55,0 -23.05,8.9 -7.15,6.6 -8.95,15.25 -0.8,0 -1.6,0 -19.5,0 -35.75,7.3 -6.9,-3.45 -15.2,-3.45 -8.45,0 -15.3,3.5 l 0,291.85 1024,0 0,-288.6 q -0.4,-15.75 -11.6,-26.95 -10,-10 -23.5,-11.4 -2.15,-3.1 -4.95,-5.9 -11.65,-11.65 -28,-11.65 z"
         id="path177"
         inkscape:connector-curvature="0"
         style="fill:#e6f4fa;stroke:none" />
    </g>
    <g
       id="Layer0_46_FILL">
      <path
         d="m 3949.6,1750.5 -15.8,1.65 -11.4,109.2 171.75,-18.05 -41.8,-33.9 -13.55,1.45 -41.25,-125.9 -36.7,3.85 -11.25,61.7 m -219.6,-212.2 -28.45,0 -13.6,62.45 -13.05,0 -15.35,85.8 -17,0 -7.15,38.25 -25.85,-78.85 -36.7,3.85 -11.25,61.7 -15.8,1.65 -11.4,109.2 84.3,-8.85 -0.05,0.3 170.25,0 -22.55,-67.6 -19.3,0 -17.05,-207.9 m -381.1,44.6 -35.05,-3.8 -51.9,143.5 -16.65,-1.8 -32.2,61.05 197.7,21.55 -38.4,-121.35 -11.3,-1.2 -12.2,-97.95 z"
         id="path180"
         inkscape:connector-curvature="0"
         style="fill:#d5edf7;stroke:none" />
    </g>
    <g
       id="Layer0_47_FILL">
      <path
         d="m 4049.6,1777.2 -2.15,-21.35 19.8,1.05 -25.85,-84.5 -21.15,81.9 17.05,0.95 -2.35,21.95 14.65,0 m -109.35,-3.05 11.2,0.65 -1.55,14.4 9.6,0 -1.4,-14.05 13,0.7 -16.95,-55.45 -13.9,53.75 m -810.2,-50 11.2,0.65 -1.55,14.4 9.6,0 -1.4,-14.05 13,0.7 -16.95,-55.45 -13.9,53.75 m 237.9,59 13,0.7 -16.95,-55.45 -13.9,53.75 11.2,0.65 -1.55,14.4 9.6,0 -1.4,-14.05 m -50.55,-5.95 -2.15,-21.35 19.8,1.05 -25.85,-84.5 -21.15,81.9 17.05,0.95 -2.35,21.95 14.65,0 z"
         id="path183"
         inkscape:connector-curvature="0"
         style="fill:#648c44;stroke:none" />
    </g>
    <g
       id="Layer0_48_FILL">
      <path
         d="m 3891.8,1631 q 33.15,-0.8 55,20 l -10.2,-75.6 -44.8,55.6 m -174.55,-9 q 26.3,-14.7 58.3,-5.7 l -29.65,-65 -28.65,70.7 z"
         id="path186"
         inkscape:connector-curvature="0"
         style="fill:#d26f49;stroke:none" />
      <path
         d="m 3867.85,1759.9 -5.15,28.9 52.45,6.65 -2.8,-26.35 -44.5,-9.2 m -103.3,16.5 2.2,-29.8 -45.45,-1.6 -5.8,25.2 49.05,6.2 z"
         id="path188"
         inkscape:connector-curvature="0"
         style="fill:#a4afaf;stroke:none" />
      <path
         d="m 3790.95,1715.15 -4.6,64 53.6,6.8 13.05,-67.5 -62.05,-3.3 z"
         id="path190"
         inkscape:connector-curvature="0"
         style="fill:#5b6666;stroke:none" />
      <path
         d="m 3769.1,1777 17.25,2.15 4.6,-64 62.05,3.3 -13.05,67.5 16.65,2.1 10.6,-84.25 -87.8,-8.45 -10.3,81.65 m -12.65,-105.65 -0.25,-19.15 q 0,-3.3 -2.4,-5.65 -2.3,-2.4 -5.65,-2.35 -3.25,0.05 -5.55,2.45 -2.3,2.35 -2.35,5.65 l 0.2,19.3 16,-0.25 m 87.1,-9.5 -28.45,-3.6 -9,17.6 -8.15,-0.85 -3.25,-19.35 -10.15,-1.25 -4.1,32.6 88.1,6.35 3.5,-27.9 -14.25,-1.8 -4.35,17 -8.05,-0.8 -1.85,-18 m 74.25,6.65 q -2.05,-3.55 -6,-4.55 -3.85,-1.05 -7.4,1.1 -3.55,2.1 -4.6,5.95 l -5.9,23 19.05,4.95 5.9,-23 q 1.05,-3.9 -1.05,-7.45 z"
         id="path192"
         inkscape:connector-curvature="0"
         style="fill:#7e8787;stroke:none" />
      <path
         d="m 3780.45,1687 -1.05,8.35 87.8,8.45 1.35,-10.45 -88.1,-6.35 m 5.2,-67.3 q -5.15,-2.05 -10.1,-3.4 -32,-9 -58.3,5.7 -4.5,2.5 -8.85,5.7 l 14.5,24.55 -1.6,92.75 45.45,1.6 6.95,-93.6 0.5,-6.15 14.1,-26.1 q -1.3,-0.55 -2.65,-1.05 m -29.45,32.5 0.25,19.15 -16,0.25 -0.2,-19.3 q 0.05,-3.3 2.35,-5.65 2.3,-2.4 5.55,-2.45 3.35,-0.05 5.65,2.35 2.4,2.35 2.4,5.65 m 129.35,-20.9 q -3.55,0.3 -7.2,0.8 l 7.15,28.8 -1.1,6.1 -16.55,92.9 44.5,9.2 21.5,-90.25 20.15,-20.15 q -3.4,-4.2 -7.2,-7.7 -21.85,-20.8 -55,-20 -3,0 -6.25,0.3 m 26.25,32.65 q 3.95,1 6,4.55 2.1,3.55 1.05,7.45 l -5.9,23 -19.05,-4.95 5.9,-23 q 1.05,-3.85 4.6,-5.95 3.55,-2.15 7.4,-1.1 z"
         id="path194"
         inkscape:connector-curvature="0"
         style="fill:#95a1a1;stroke:none" />
      <path
         d="m 3784.55,1654.4 -10.85,-1.4 -6.95,93.6 -2.2,29.8 4.55,0.6 10.3,-81.65 1.05,-8.35 4.1,-32.6 m 99.85,12.6 -12.35,-1.55 -3.5,27.9 -1.35,10.45 -10.6,84.25 6.1,0.75 5.15,-28.9 16.55,-92.9 z"
         id="path196"
         inkscape:connector-curvature="0"
         style="fill:#767e7e;stroke:none" />
    </g>
    <g
       id="Layer0_49_FILL">
      <path
         d="m 3953.95,590.8 q -3.4,-4.2 -7.2,-7.7 l -10.2,-75.6 -44.8,55.6 q -3,0 -6.25,0.3 -3.55,0.3 -7.2,0.8 l 7.15,28.8 -1.1,6.1 -26.6,-3.35 -4.35,17 -8.05,-0.8 -1.85,-18 -28.45,-3.6 -9,17.6 -8.15,-0.85 -3.25,-19.35 -21,-2.65 0.5,-6.15 14.1,-26.1 q -1.3,-0.55 -2.65,-1.05 -5.15,-2.05 -10.1,-3.4 l -29.65,-65 -28.65,70.7 q -4.5,2.5 -8.85,5.7 l 14.5,24.55 -1.6,92.75 -5.8,25.2 199.65,25.25 -2.8,-26.35 21.5,-90.25 20.15,-20.15 z"
         id="path199"
         inkscape:connector-curvature="0"
         style="fill:#b6d9e7;stroke:none" />
    </g>
    <g
       id="Layer0_50_FILL">
      <path
         d="m 1490.95,736.3 -111,-165 -103.8,165 214.8,0 m -16.5,-30.95 134.2,0 -69.35,-103.1 -64.85,103.1 z"
         id="path202"
         inkscape:connector-curvature="0"
         style="fill:#b6d9e7;stroke:none" />
    </g>
    <g
       id="Layer0_51_FILL">
      <path
         d="m 1431.6,261.05 q -17.8,0 -30.4,12.55 -12.5,12.6 -12.5,30.35 0,17.8 12.5,30.3 12.6,12.6 30.4,12.6 17.75,0 30.25,-12.6 12.65,-12.5 12.65,-30.3 0,-17.75 -12.65,-30.35 -12.5,-12.55 -30.25,-12.55 m 1,12.9 q 13.25,0 22.6,9.35 9.4,9.4 9.4,22.65 0,13.25 -9.4,22.6 -9.35,9.4 -22.6,9.4 -13.25,0 -22.65,-9.4 -9.35,-9.35 -9.35,-22.6 0,-13.25 9.35,-22.65 9.4,-9.35 22.65,-9.35 z"
         id="path205"
         inkscape:connector-curvature="0"
         style="fill:#ffffff;fill-opacity:0.30196078;stroke:none" />
      <path
         d="m 1455.2,283.3 q -9.35,-9.35 -22.6,-9.35 -13.25,0 -22.65,9.35 -9.35,9.4 -9.35,22.65 0,13.25 9.35,22.6 9.4,9.4 22.65,9.4 13.25,0 22.6,-9.4 9.4,-9.35 9.4,-22.6 0,-13.25 -9.4,-22.65 z"
         id="path207"
         inkscape:connector-curvature="0"
         style="fill:#ffffff;stroke:none" />
    </g>
    <g
       id="Layer0_52_FILL">
      <path
         d="m 2528.45,666.4 -9.65,13.6 -13.85,-4.9 6.15,15.9 -8.85,2.4 10.55,6.95 19.1,0 7.25,-15.3 -8.8,-1.75 -1.9,-16.9 z"
         id="path210"
         inkscape:connector-curvature="0"
         style="fill:#b6d9e7;stroke:none" />
    </g>
    <g
       id="Layer0_53_FILL">
      <path
         d="m 2086.3,672.35 7.25,-15.3 -8.8,-1.75 -1.9,-16.9 -9.65,13.6 -13.85,-4.9 6.15,15.9 -8.85,2.4 10.55,6.95 19.1,0 z"
         id="path213"
         inkscape:connector-curvature="0"
         style="fill:#b6d9e7;stroke:none" />
    </g>
    <g
       id="Layer0_54_FILL">
      <path
         d="m 912,-388.3 q -34.9,12.4 -68.55,27.8 -58.95,27 -120.55,4.25 -57.1,-21.15 -115.4,-38.6 -59.85,-17.85 -121.25,-5.75 -61.3,12.1 -117.15,38.65 -56.45,26.65 -119.5,27.1 -62.95,0.55 -121.85,-20.85 -57.1,-20.9 -116.45,-34.9 -62.05,-14.5 -123.25,2.3 l 0,389.3 1023.95,0 0,-389.3 z"
         id="path216"
         inkscape:connector-curvature="0"
         style="fill:#b6d9e7;stroke:none" />
    </g>
    <g
       id="Layer0_55_FILL">
      <path
         d="m 774.45,632 6.1,0.3 -17,-47.2 -21.5,45.6 6.85,0.3 -18.1,35.7 6.05,1.2 -14.65,38.3 25.8,0.45 -1.5,8 q -11.75,-2.55 -23.6,-6.9 -57.1,-21.15 -115.4,-38.6 -59.85,-17.85 -121.25,-5.75 -10.25,2 -20.3,4.45 l -2.65,-21.3 46.25,-5.25 -21.65,-47.75 7.9,0.55 -23.15,-70.65 9.85,-0.85 -37.15,-72 -24.75,77.5 10.95,-0.95 -21.5,61 9.95,0.65 -15.45,64.45 41.4,-4.7 -1.45,24.95 q -38.85,11.2 -75.4,28.55 -23.7,11.2 -48.6,17.8 l -1.65,-13.2 28.65,-3.25 -13.4,-29.55 4.85,0.35 -14.3,-43.75 6.1,-0.5 -23,-44.6 -15.35,48 6.8,-0.6 -13.3,37.75 6.15,0.4 -9.55,39.9 25.6,-2.9 -0.85,15.1 q -28.1,5.95 -57.65,6.15 Q 186.65,729.7 127.75,708.3 77.8,690 26.1,677 l 0.95,-25.45 46.45,2.15 -13.7,-50.55 7.7,1.8 -11.55,-73.45 9.85,0.75 -25.2,-77.05 -36.8,72.55 10.95,0.85 -30.95,56.8 9.7,2.2 -25.55,61.15 41.65,2 L 4.9,672 q -58.8,-12.25 -116.85,3.7 l 0,389.3 1023.95,0 0,-389.3 q -34.9,12.4 -68.55,27.8 -41.7,19.1 -84.7,13.3 l 0.05,-10 28.8,0.5 -9.45,-31.05 4.75,1 -8.45,-45.25 z"
         id="path219"
         inkscape:connector-curvature="0"
         style="fill:#b6d9e7;stroke:none" />
    </g>
    <g
       id="Layer0_56_FILL">
      <path
         d="m 1191.8,1776.2 q -57.1,-20.9 -116.45,-34.9 -62.05,-14.5 -123.25,2.3 l 0,389.3 1023.95,0 0,-389.3 q -34.9,12.4 -68.55,27.8 -58.95,27 -120.55,4.25 -57.1,-21.15 -115.4,-38.6 -59.85,-17.85 -121.25,-5.75 -61.3,12.1 -117.15,38.65 -56.45,26.65 -119.5,27.1 -62.95,0.55 -121.85,-20.85 z"
         id="path222"
         inkscape:connector-curvature="0"
         style="fill:#dbceaf;stroke:none" />
    </g>
    <g
       id="Layer0_57_FILL">
      <path
         d="m 3040,1707.6 q -61.2,-16.8 -123.25,-2.3 -59.35,14 -116.45,34.9 -58.9,21.4 -121.85,20.85 -63.05,-0.45 -119.5,-27.1 -55.85,-26.55 -117.15,-38.65 -61.4,-12.1 -121.25,5.75 -58.3,17.45 -115.4,38.6 -61.6,22.75 -120.55,-4.25 -33.65,-15.4 -68.55,-27.8 l 0,389.3 1023.95,0 0,-389.3 z"
         id="path225"
         inkscape:connector-curvature="0"
         style="fill:#d4e7c5;stroke:none" />
    </g>
    <g
       id="Layer0_58_FILL">
      <path
         d="m 3040.05,1743.6 q -34.9,12.4 -68.55,27.8 -58.95,27 -120.55,4.25 -57.1,-21.15 -115.4,-38.6 -59.85,-17.85 -121.25,-5.75 -61.3,12.1 -117.15,38.65 -56.45,26.65 -119.5,27.1 -62.95,0.55 -121.85,-20.85 -57.1,-20.9 -116.45,-34.9 -62.05,-14.5 -123.25,2.3 l 0,389.3 1023.95,0 0,-389.3 z"
         id="path228"
         inkscape:connector-curvature="0"
         style="fill:#b8d0a6;stroke:none" />
    </g>
    <g
       id="Layer0_59_MEMBER_0_FILL">
      <path
         d="m 2672.65,1702.7 q -3.55,0 -6.8,-0.75 l 0,52.1 q 0,2.85 2.1,4.95 2.05,2.05 4.95,2.05 2.9,0 4.95,-2.05 2.05,-2.1 2.05,-4.95 l 0,-52.15 q -3.4,0.8 -7.2,0.8 l -0.05,0 z"
         id="path231"
         inkscape:connector-curvature="0"
         style="fill:#9c7b53;stroke:none" />
      <path
         d="m 2672.65,1693 q -3.55,0 -6.8,-0.75 l 0,9.7 q 3.25,0.75 6.8,0.75 l 0.05,0 q 3.8,0 7.2,-0.8 l 0,-9.75 q -3.4,0.85 -7.2,0.85 l -0.05,0 z"
         id="path233"
         inkscape:connector-curvature="0"
         style="fill:#876844;stroke:none" />
      <path
         d="m 2693.3,1648.05 q -5.9,5.85 -13.4,7.7 -3.4,0.8 -7.2,0.8 l -0.05,0 q -3.55,0 -6.8,-0.7 -7.75,-1.8 -13.75,-7.8 -8.2,-8.2 -8.55,-19.6 l 0,36.05 q 0.2,11.65 8.55,19.95 6,6 13.75,7.8 3.25,0.75 6.8,0.75 l 0.05,0 q 3.8,0 7.2,-0.85 7.5,-1.85 13.4,-7.7 8.3,-8.3 8.5,-19.95 l 0,-36.05 q -0.35,11.4 -8.5,19.6 z"
         id="path235"
         inkscape:connector-curvature="0"
         style="fill:#597b3e;stroke:none" />
      <path
         d="m 2672.7,1476.95 -0.05,0 q -12.05,0 -20.55,8.5 -8.3,8.25 -8.55,19.85 l 0,123.15 q 0.35,11.4 8.55,19.6 6,6 13.75,7.8 3.25,0.7 6.8,0.7 l 0.05,0 q 3.8,0 7.2,-0.8 7.5,-1.85 13.4,-7.7 8.15,-8.2 8.5,-19.6 l 0,-123.15 q -0.25,-11.6 -8.5,-19.85 -8.55,-8.5 -20.6,-8.5 z"
         id="path237"
         inkscape:connector-curvature="0"
         style="fill:#648c44;stroke:none" />
    </g>
    <g
       id="Layer0_60_FILL">
      <path
         d="m 2096.9,1725.3 q -1.5,0 -2.9,-0.3 l 0,22 q 0,1.25 0.9,2.1 0.85,0.9 2.1,0.9 1.2,0 2.05,-0.9 0.9,-0.85 0.9,-2.1 l 0,-22 q -1.45,0.3 -3.05,0.3 z"
         id="path240"
         inkscape:connector-curvature="0"
         style="fill:#9c7b53;stroke:none" />
      <path
         d="m 2094,1725 q 1.4,0.3 2.9,0.3 1.6,0 3.05,-0.3 l 0,-4.15 q -1.45,0.35 -3.05,0.35 -1.5,0 -2.9,-0.3 l 0,4.1 z"
         id="path242"
         inkscape:connector-curvature="0"
         style="fill:#876844;stroke:none" />
      <path
         d="m 2109.2,1693.95 0,-52.05 q -0.1,-4.85 -3.6,-8.35 -3.6,-3.65 -8.7,-3.65 -5.1,0 -8.7,3.65 -3.5,3.5 -3.65,8.35 l 0,52.05 q 0.15,4.8 3.65,8.25 2.5,2.55 5.8,3.35 1.4,0.25 2.9,0.25 1.6,0 3.05,-0.3 3.15,-0.8 5.65,-3.3 3.45,-3.45 3.6,-8.25 z"
         id="path244"
         inkscape:connector-curvature="0"
         style="fill:#648c44;stroke:none" />
      <path
         d="m 2109.2,1709.2 0,-15.25 q -0.15,4.8 -3.6,8.25 -2.5,2.5 -5.65,3.3 -1.45,0.3 -3.05,0.3 -1.5,0 -2.9,-0.25 -3.3,-0.8 -5.8,-3.35 -3.5,-3.45 -3.65,-8.25 l 0,15.25 q 0.15,4.9 3.65,8.4 2.5,2.55 5.8,3.3 1.4,0.3 2.9,0.3 1.6,0 3.05,-0.35 3.15,-0.8 5.65,-3.25 3.5,-3.5 3.6,-8.4 z"
         id="path246"
         inkscape:connector-curvature="0"
         style="fill:#597b3e;stroke:none" />
    </g>
    <g
       id="Layer0_61_FILL">
      <path
         d="m 3799.55,1737.05 q -59.85,-17.85 -121.25,-5.75 -61.3,12.1 -117.15,38.65 -56.45,26.65 -119.5,27.1 -62.95,0.55 -121.85,-20.85 -57.1,-20.9 -116.45,-34.9 -62.05,-14.5 -123.25,2.3 l 0,389.3 1023.95,0 0,-389.3 q -34.9,12.4 -68.55,27.8 -58.95,27 -120.55,4.25 -57.1,-21.15 -115.4,-38.6 z"
         id="path249"
         inkscape:connector-curvature="0"
         style="fill:#b8d0a6;stroke:none" />
    </g>
    <g
       id="Layer0_62_MEMBER_0_FILL">
      <path
         d="m 443.55,1758.75 25.25,0 -4.5,-36.55 -18.85,3.8 -1.9,32.75 z"
         id="path252"
         inkscape:connector-curvature="0"
         style="fill:#795b48;stroke:none" />
      <path
         d="m 463.35,1714.45 -17.35,2 -0.55,9.55 18.85,-3.8 -0.95,-7.75 z"
         id="path254"
         inkscape:connector-curvature="0"
         style="fill:#6d503d;stroke:none" />
      <path
         d="m 472.7,1591.35 9.85,-0.85 -37.15,-72 -24.75,77.5 10.95,-0.95 41.1,-3.7 m 36.9,117.85 -20.45,-45 -72.15,5.2 -12.4,51.75 41.4,-4.7 17.35,-2 46.25,-5.25 m -21.65,-47.75 7.9,0.55 -18.45,-56.25 -47.95,-4.65 -19.35,54.95 9.95,0.65 67.9,4.75 z"
         id="path256"
         inkscape:connector-curvature="0"
         style="fill:#448c5e;stroke:none" />
      <path
         d="m 477.4,1605.75 -4.7,-14.4 -41.1,3.7 -2.15,6.05 47.95,4.65 m 11.75,58.45 -1.2,-2.75 -67.9,-4.75 -3.05,12.7 72.15,-5.2 z"
         id="path258"
         inkscape:connector-curvature="0"
         style="fill:#3e7b54;stroke:none" />
    </g>
    <g
       id="Layer0_62_MEMBER_1_FILL">
      <path
         d="m 7.75,1717.45 17.35,1.35 46.45,3.65 -11.55,-48.1 -71.85,-8.6 -21.95,48.45 41.55,3.25 m 51.6,-46 7.7,2.05 -7.5,-58.75 -46.15,-13.65 -29.45,50.25 9.65,2.55 65.75,17.55 m -1.65,-71.7 9.8,1 -22.8,-77.75 -39,71.4 10.95,1.15 41.05,4.2 z"
         id="path261"
         inkscape:connector-curvature="0"
         style="fill:#448c5e;stroke:none" />
      <path
         d="m 24.6,1726.6 -19.2,0.15 -8.1,31.8 24.75,4.8 2.55,-36.75 z"
         id="path263"
         inkscape:connector-curvature="0"
         style="fill:#795b48;stroke:none" />
      <path
         d="m 5.4,1726.75 19.2,-0.15 0.5,-7.8 -17.35,-1.35 -2.35,9.3 z"
         id="path265"
         inkscape:connector-curvature="0"
         style="fill:#6d503d;stroke:none" />
      <path
         d="m 60,1674.35 -0.65,-2.9 -65.75,-17.55 -5.45,11.85 71.85,8.6 m -0.45,-59.6 -1.85,-15 -41.05,-4.2 -3.25,5.55 46.15,13.65 z"
         id="path267"
         inkscape:connector-curvature="0"
         style="fill:#3e7b54;stroke:none" />
    </g>
    <g
       id="Layer0_62_MEMBER_2_FILL">
      <path
         d="m 300,1785.45 -3.3,23.8 18.4,1.5 -1.15,-27 -13.95,1.7 z"
         id="path270"
         inkscape:connector-curvature="0"
         style="fill:#795b48;stroke:none" />
      <path
         d="m 313.65,1778 -12.75,0.45 -0.9,7 13.95,-1.7 -0.3,-5.75 z"
         id="path272"
         inkscape:connector-curvature="0"
         style="fill:#6d503d;stroke:none" />
      <path
         d="m 335.4,1742.75 -0.7,-2.05 -49.35,-7.35 -3,9.1 53.05,0.3 m -5.25,-43.35 -2.55,-10.8 -30.25,0.3 -1.95,4.35 34.75,6.15 z"
         id="path274"
         inkscape:connector-curvature="0"
         style="fill:#3e7b54;stroke:none" />
      <path
         d="m 334.7,1740.7 5.8,0.85 -10.35,-42.15 -34.75,-6.15 -17.3,39.05 7.25,1.05 49.35,7.35 m 13.1,36.15 -12.4,-34.1 -53.05,-0.3 -12,37.1 30.55,-1.1 12.75,-0.45 34.15,-1.15 m -20.2,-88.25 7.2,-0.1 -23.05,-54.75 -22.5,55.25 8.1,-0.1 30.25,-0.3 z"
         id="path276"
         inkscape:connector-curvature="0"
         style="fill:#448c5e;stroke:none" />
    </g>
    <g
       id="Layer0_62_MEMBER_3_FILL">
      <path
         d="m 747.6,1771.15 -12.6,0.2 -5.25,20.9 16.3,3.15 1.55,-24.25 z"
         id="path279"
         inkscape:connector-curvature="0"
         style="fill:#795b48;stroke:none" />
      <path
         d="m 747.9,1766 -11.45,-0.8 -1.45,6.15 12.6,-0.2 0.3,-5.15 z"
         id="path281"
         inkscape:connector-curvature="0"
         style="fill:#6d503d;stroke:none" />
      <path
         d="m 769.05,1687.5 -27.05,-2.65 -2.15,3.7 30.45,8.85 -1.25,-9.9 m -42.05,35.85 -3.6,7.9 47.4,5.35 -0.45,-1.9 -43.35,-11.35 z"
         id="path283"
         inkscape:connector-curvature="0"
         style="fill:#3e7b54;stroke:none" />
      <path
         d="m 742,1684.85 27.05,2.65 6.45,0.6 -15.3,-51.1 -25.45,47.15 7.25,0.7 m -18.6,46.4 -14.3,31.9 27.35,2.05 11.45,0.8 30.6,2.3 -7.7,-31.7 -47.4,-5.35 m -2.8,-9.55 6.4,1.65 43.35,11.35 5.1,1.35 -5.15,-38.65 -30.45,-8.85 -19.25,33.15 z"
         id="path285"
         inkscape:connector-curvature="0"
         style="fill:#448c5e;stroke:none" />
    </g>
    <g
       id="Layer0_63_FILL">
      <path
         d="m 912.05,1743.6 q -34.9,12.4 -68.55,27.8 -58.95,27 -120.55,4.25 -57.1,-21.15 -115.4,-38.6 -59.85,-17.85 -121.25,-5.75 -61.3,12.1 -117.15,38.65 -56.45,26.65 -119.5,27.1 -62.95,0.55 -121.85,-20.85 -57.1,-20.9 -116.45,-34.9 -62.05,-14.5 -123.25,2.3 l 0,389.3 1023.95,0 0,-389.3 z"
         id="path288"
         inkscape:connector-curvature="0"
         style="fill:#a69a92;stroke:none" />
    </g>
  </defs>
  <g
     transform="translate(-2016.05,-1108.9)"
     id="g470">
    <use
       xlink:href="#Layer0_40_FILL"
       id="use472"
       x="0"
       y="0"
       width="4500"
       height="3200" />
  </g>
  <g
     transform="translate(-2016.05,-1108.9)"
     id="g474">
    <use
       xlink:href="#Layer0_41_FILL"
       id="use476"
       x="0"
       y="0"
       width="4500"
       height="3200" />
  </g>
  <g
     transform="translate(-2016.05,-1108.9)"
     id="g478">
    <use
       xlink:href="#Layer0_42_FILL"
       id="use480"
       x="0"
       y="0"
       width="4500"
       height="3200" />
  </g>
  <g
     transform="translate(-2016.05,-1108.9)"
     id="g482">
    <use
       xlink:href="#Layer0_43_FILL"
       id="use484"
       x="0"
       y="0"
       width="4500"
       height="3200" />
  </g>
  <g
     transform="translate(-2016.05,-1108.9)"
     id="g538">
    <use
       xlink:href="#Layer0_57_FILL"
       id="use540"
       x="0"
       y="0"
       width="4500"
       height="3200" />
  </g>
  <g
     transform="translate(-2016.05,-1108.9)"
     id="g542">
    <use
       xlink:href="#Layer0_58_FILL"
       id="use544"
       x="0"
       y="0"
       width="4500"
       height="3200" />
  </g>
  <g
     transform="translate(-2016.05,-1108.9)"
     id="g546">
    <use
       xlink:href="#Layer0_59_MEMBER_0_FILL"
       id="use548"
       x="0"
       y="0"
       width="4500"
       height="3200" />
  </g>
  <g
     transform="translate(-2016.05,-1108.9)"
     id="g550">
    <use
       xlink:href="#Layer0_60_FILL"
       id="use552"
       x="0"
       y="0"
       width="4500"
       height="3200" />
  </g>
</svg>
