<?xml version="1.0" encoding="UTF-8" standalone="no"?>
<svg
   xmlns:dc="http://purl.org/dc/elements/1.1/"
   xmlns:cc="http://creativecommons.org/ns#"
   xmlns:rdf="http://www.w3.org/1999/02/22-rdf-syntax-ns#"
   xmlns:svg="http://www.w3.org/2000/svg"
   xmlns="http://www.w3.org/2000/svg"
   xmlns:sodipodi="http://sodipodi.sourceforge.net/DTD/sodipodi-0.dtd"
   xmlns:inkscape="http://www.inkscape.org/namespaces/inkscape"
   id="svg3197"
   version="1.1"
   inkscape:version="0.48.4 r9939"
   width="356.05634"
   height="256"
   sodipodi:docname="tiles.svg"
   inkscape:export-filename="/home/jutice/Documents/projects/engine/examples/public/tiles.png"
   inkscape:export-xdpi="90"
   inkscape:export-ydpi="90">
  <metadata
     id="metadata3337">
    <rdf:RDF>
      <cc:Work
         rdf:about="">
        <dc:format>image/svg+xml</dc:format>
        <dc:type
           rdf:resource="http://purl.org/dc/dcmitype/StillImage" />
        <dc:title></dc:title>
      </cc:Work>
    </rdf:RDF>
  </metadata>
  <sodipodi:namedview
     pagecolor="#ffffff"
     bordercolor="#666666"
     borderopacity="1"
     objecttolerance="10"
     gridtolerance="10"
     guidetolerance="10"
     inkscape:pageopacity="0"
     inkscape:pageshadow="2"
     inkscape:window-width="1366"
     inkscape:window-height="744"
     id="namedview3335"
     showgrid="false"
     inkscape:zoom="1.1345904"
     inkscape:cx="225.38099"
     inkscape:cy="150.35982"
     inkscape:window-x="0"
     inkscape:window-y="24"
     inkscape:window-maximized="1"
     inkscape:current-layer="g3201"
     inkscape:snap-bbox="true"
     fit-margin-top="0"
     fit-margin-left="0"
     fit-margin-right="0"
     fit-margin-bottom="0" />
  <defs
     id="defs3199" />
  <g
     id="g3201"
     transform="translate(0,-796.3622)">
    <path
       d="m 184.94648,988.3622 q 7.05352,0 7.05352,7.07606 l 0,49.87044 q 0,7.0535 -7.05352,7.0535 l -49.89296,0 q -7.05352,0 -7.05352,-7.0535 l 0,-49.87044 q 0,-7.07606 7.05352,-7.07606 l 49.89296,0"
       id="path3203"
       inkscape:connector-curvature="0"
       style="fill:#62391b;stroke:none"
       inkscape:export-filename="/home/jutice/Documents/projects/engine/examples/public/path3333.png"
       inkscape:export-xdpi="90"
       inkscape:export-ydpi="90" />
    <path
       d="m 120.94648,796.3622 q 7.05352,0 7.05352,7.07606 l 0,49.87042 q 0,7.05352 -7.05352,7.05352 l -49.892959,0 Q 64,860.3622 64,853.30868 l 0,-49.87042 q 0,-7.07606 7.053521,-7.07606 l 49.892959,0"
       id="path3205"
       inkscape:connector-curvature="0"
       style="fill:#1c3943;stroke:none"
       inkscape:export-filename="/home/jutice/Documents/projects/engine/examples/public/path3333.png"
       inkscape:export-xdpi="90"
       inkscape:export-ydpi="90" />
    <path
       d="m 349.00282,860.31713 q 7.05352,0 7.05352,7.07606 l 0,49.87042 q 0,7.05352 -7.05352,7.05352 l -49.89296,0 q -7.05352,0 -7.05352,-7.05352 l 0,-49.87042 q 0,-7.07606 7.05352,-7.07606 l 49.89296,0 m -292.056341,0 Q 64,860.31713 64,867.39319 l 0,49.87042 q 0,7.05352 -7.053521,7.05352 l -49.8929574,0 Q 0,924.31713 0,917.26361 l 0,-49.87042 q 0,-7.07606 7.0535216,-7.07606 l 49.8929574,0"
       id="path3207"
       inkscape:connector-curvature="0"
       style="fill:#747474;stroke:none"
       inkscape:export-filename="/home/jutice/Documents/projects/engine/examples/public/path3333.png"
       inkscape:export-xdpi="90"
       inkscape:export-ydpi="90" />
    <path
       d="m 64,931.43826 q 0,-7.07606 7.053521,-7.07606 l 49.892959,0 q 7.05352,0 7.05352,7.07606 l 0,49.87042 q 0,7.05352 -7.05352,7.05352 l -49.892959,0 Q 64,988.3622 64,981.30868 l 0,-49.87042"
       id="path3209"
       inkscape:connector-curvature="0"
       style="fill:#8e488e;stroke:none"
       inkscape:export-filename="/home/jutice/Documents/projects/engine/examples/public/path3333.png"
       inkscape:export-xdpi="90"
       inkscape:export-ydpi="90" />
    <path
       d="M 56.946479,796.3622 Q 64,796.3622 64,803.43826 l 0,49.87042 q 0,7.05352 -7.053521,7.05352 l -49.8929579,0 Q 0,860.3622 0,853.30868 l 0,-49.87042 q 0,-7.07606 7.0535211,-7.07606 l 49.8929579,0"
       id="path3211"
       inkscape:connector-curvature="0"
       style="fill:#7b1e06;stroke:none"
       inkscape:export-filename="/home/jutice/Documents/projects/engine/examples/public/path3333.png"
       inkscape:export-xdpi="90"
       inkscape:export-ydpi="90" />
    <path
       d="m 120.94648,860.3622 q 7.05352,0 7.05352,7.07606 l 0,49.87042 q 0,7.05352 -7.05352,7.05352 l -49.892959,0 Q 64,924.3622 64,917.30868 l 0,-49.87042 q 0,-7.07606 7.053521,-7.07606 l 49.892959,0"
       id="path3213"
       inkscape:connector-curvature="0"
       style="fill:#8c8c8c;stroke:none"
       inkscape:export-filename="/home/jutice/Documents/projects/engine/examples/public/path3333.png"
       inkscape:export-xdpi="90"
       inkscape:export-ydpi="90" />
    <path
       d="m 120.94648,988.3622 q 7.05352,0 7.05352,7.07606 l 0,49.87044 q 0,7.0535 -7.05352,7.0535 l -49.892959,0 Q 64,1052.3622 64,1045.3087 l 0,-49.87044 q 0,-7.07606 7.053521,-7.07606 l 49.892959,0"
       id="path3215"
       inkscape:connector-curvature="0"
       style="fill:#28538e;stroke:none"
       inkscape:export-filename="/home/jutice/Documents/projects/engine/examples/public/path3333.png"
       inkscape:export-xdpi="90"
       inkscape:export-ydpi="90" />
    <path
       d="M 56.946479,924.3622 Q 64,924.3622 64,931.43826 l 0,49.87042 q 0,7.05352 -7.053521,7.05352 l -49.8929579,0 Q 0,988.3622 0,981.30868 l 0,-49.87042 q 0,-7.07606 7.0535211,-7.07606 l 49.8929579,0"
       id="path3217"
       inkscape:connector-curvature="0"
       style="fill:#347e0f;stroke:none"
       inkscape:export-filename="/home/jutice/Documents/projects/engine/examples/public/path3333.png"
       inkscape:export-xdpi="90"
       inkscape:export-ydpi="90" />
    <path
       d="m 0,995.43826 q 0,-7.07606 7.0535211,-7.07606 l 49.8929579,0 Q 64,988.3622 64,995.43826 l 0,49.87044 q 0,7.0535 -7.053521,7.0535 l -49.8929579,0 Q 0,1052.3622 0,1045.3087 l 0,-49.87044"
       id="path3219"
       inkscape:connector-curvature="0"
       style="fill:#9a7b00;stroke:none"
       inkscape:export-filename="/home/jutice/Documents/projects/engine/examples/public/path3333.png"
       inkscape:export-xdpi="90"
       inkscape:export-ydpi="90" />
    <path
       d="m 305.08169,863.47206 37.97183,0 q -0.0225,3.5831 1.08169,7.66197 1.75775,6.58028 5.29578,10.61409 1.78028,2.00563 3.47042,2.79436 l 0,32.72113 q 0,3.89859 -3.89859,3.89859 l -49.89296,0 q -3.89859,0 -3.89859,-3.89859 l 0,-32.72113 q 1.71267,-0.78873 3.47042,-2.79436 3.53803,-4.03381 5.29577,-10.61409 1.10423,-4.07887 1.10423,-7.66197"
       id="path3221"
       inkscape:connector-curvature="0"
       style="fill:#d2d0d0;stroke:none"
       inkscape:export-filename="/home/jutice/Documents/projects/engine/examples/public/path3333.png"
       inkscape:export-xdpi="90"
       inkscape:export-ydpi="90" />
    <path
       d="m 305.08169,863.47206 q 0,3.5831 -1.10423,7.66197 -1.75774,6.58028 -5.29577,10.61409 -1.75775,2.00563 -3.47042,2.79436 l 0,-17.14929 q 0,-3.92113 3.89859,-3.92113 l 5.97183,0 m 37.97183,0 5.9493,0 q 3.89859,0 3.89859,3.92113 l 0,17.14929 q -1.69014,-0.78873 -3.47042,-2.79436 -3.53803,-4.03381 -5.29578,-10.61409 -1.10422,-4.07887 -1.08169,-7.66197"
       id="path3223"
       inkscape:connector-curvature="0"
       style="fill:#bdb6b6;stroke:none"
       inkscape:export-filename="/home/jutice/Documents/projects/engine/examples/public/path3333.png"
       inkscape:export-xdpi="90"
       inkscape:export-ydpi="90" />
    <path
       d="m 312.67606,893.15093 0,0.11268 0,0.27042 q -0.15775,1.5324 -1.55493,2.61409 -1.55493,1.2169 -3.74085,1.2169 -2.18591,0 -3.74084,-1.2169 -1.39719,-1.08169 -1.5324,-2.61409 l -0.0225,-0.27042 0,-0.11268 0,-0.0676 q 0.0225,-2.97465 1.55493,-5.07043 1.55493,-2.14084 3.74084,-2.14084 2.18592,0 3.74085,2.14084 1.53239,2.09578 1.55493,5.07043 l 0,0.0676 m 33.35211,0 0,0.11268 0,0.27042 q -0.15775,1.5324 -1.55493,2.61409 -1.55493,1.2169 -3.74085,1.2169 -2.18591,0 -3.74084,-1.2169 -1.39718,-1.08169 -1.5324,-2.61409 l -0.0225,-0.27042 0,-0.11268 0,-0.0676 q 0.0225,-2.97465 1.55493,-5.07043 1.55493,-2.14084 3.74084,-2.14084 2.18592,0 3.74085,2.14084 1.53239,2.09578 1.55493,5.07043 l 0,0.0676"
       id="path3225"
       inkscape:connector-curvature="0"
       style="fill:#333333;stroke:none"
       inkscape:export-filename="/home/jutice/Documents/projects/engine/examples/public/path3333.png"
       inkscape:export-xdpi="90"
       inkscape:export-ydpi="90" />
    <path
       d="m 351.77465,915.48333 q 0.15774,0.33802 0.0451,0.76619 l -0.0451,0.0451 -0.40564,0.56338 -1.69014,1.35212 -0.0451,0 -0.47324,0.22535 -0.13521,0 -0.56338,-0.0901 -0.0225,0 q -0.36057,-0.15775 -0.56338,-0.45071 -5.16057,-6.80563 -13.31831,-6.44507 l -0.0676,0 -0.54084,-0.13521 -0.0676,0 q -0.29296,-0.18028 -0.42817,-0.4507 l -0.0451,0 q -0.18028,-0.33803 -0.15775,-0.60845 l -0.0225,0 q -0.18028,-6.19719 8.72113,-7.70704 l 0.76619,0.0901 q 5.90423,2.4338 9.05916,12.8676 m -55.43662,0 q 3.15493,-10.4338 9.05915,-12.8676 l 0.7662,-0.0901 q 8.90141,1.50985 8.72113,7.70704 l -0.0225,0 -0.15774,0.60845 -0.0451,0 -0.42816,0.4507 -0.0676,0 -0.54084,0.13521 -0.0676,0 q -8.15775,-0.36056 -13.31831,6.44507 l -0.56338,0.45071 -0.0225,0 -0.56338,0.0901 -0.13521,0 q -0.24788,-0.0676 -0.47324,-0.22535 l -0.0451,0 -1.69014,-1.35212 -0.40563,-0.56338 -0.0451,-0.0451 q -0.11268,-0.42817 0.0451,-0.76619"
       id="path3227"
       inkscape:connector-curvature="0"
       style="fill:#ffffff;stroke:none"
       inkscape:export-filename="/home/jutice/Documents/projects/engine/examples/public/path3333.png"
       inkscape:export-xdpi="90"
       inkscape:export-ydpi="90" />
    <path
       d="m 332.37183,897.07206 q 2.00563,2.25352 2.02817,4.84507 0,0.67606 -0.24789,1.37465 l -5.67887,16.78873 q -0.15775,0.4507 -1.48732,0.7662 l -2.92958,0.27042 -2.95211,-0.27042 q -1.30705,-0.3155 -1.44226,-0.7662 l -5.47605,-16.11268 q -0.47324,-1.37464 -0.45071,-2.0507 -0.0225,-2.59155 1.96056,-4.84507 3.10986,-3.40282 8.36057,-3.40282 5.2507,0 8.31549,3.40282"
       id="path3229"
       inkscape:connector-curvature="0"
       style="fill:#bdb6b6;stroke:none"
       inkscape:export-filename="/home/jutice/Documents/projects/engine/examples/public/path3333.png"
       inkscape:export-xdpi="90"
       inkscape:export-ydpi="90" />
    <path
       d="M 60.84507,849.45516 Q 48.292958,852.02417 32,852.02417 q -15.707042,0 -27.9211268,-2.38873 l -0.9239436,-0.18028 0,-46.0169 q 0,-3.92113 3.8985915,-3.92113 l 49.8929579,0 q 3.898591,0 3.898591,3.92113 l 0,46.0169"
       id="path3231"
       inkscape:connector-curvature="0"
       style="fill:#d23007;stroke:none"
       inkscape:export-filename="/home/jutice/Documents/projects/engine/examples/public/path3333.png"
       inkscape:export-xdpi="90"
       inkscape:export-ydpi="90" />
    <path
       d="m 60.84507,849.45516 0,3.85352 q 0,3.89859 -3.898591,3.89859 l -49.8929579,0 q -3.8985915,0 -3.8985915,-3.89859 l 0,-3.85352 0.9239436,0.18028 Q 16.292958,852.02417 32,852.02417 q 16.292958,0 28.84507,-2.56901"
       id="path3233"
       inkscape:connector-curvature="0"
       style="fill:#ffcc00;stroke:none"
       inkscape:export-filename="/home/jutice/Documents/projects/engine/examples/public/path3333.png"
       inkscape:export-xdpi="90"
       inkscape:export-ydpi="90" />
    <path
       d="m 26.726761,828.18192 -0.04507,0.31549 q -1.870422,6.89578 -5.92676,11.01972 -4.056338,4.12394 -7.95493,3.04225 -3.9211268,-1.03662 -5.4084507,-6.62535 -1.4647887,-5.61127 0.4056338,-12.50704 l 0.04507,-0.29296 q 1.1042254,-3.76338 4.5295779,-5.70141 3.492958,-2.0507 7.414084,-1.01408 3.898592,1.05915 5.949296,4.57465 1.938028,3.42535 0.99155,7.18873 m 29.476056,-4.75493 q 1.870422,6.89577 0.405634,12.50704 -1.487324,5.58873 -5.408451,6.62535 -3.898592,1.08169 -7.95493,-3.04225 -4.056338,-4.12394 -5.92676,-11.01972 l -0.04507,-0.31549 q -0.946478,-3.76338 0.99155,-7.18873 2.050704,-3.5155 5.949296,-4.57465 3.921126,-1.03662 7.414084,1.01408 3.425352,1.93803 4.529577,5.70141 l 0.04507,0.29296"
       id="path3235"
       inkscape:connector-curvature="0"
       style="fill:#ffffff;stroke:none"
       inkscape:export-filename="/home/jutice/Documents/projects/engine/examples/public/path3333.png"
       inkscape:export-xdpi="90"
       inkscape:export-ydpi="90" />
    <path
       d="m 23.076056,826.73966 0,0.0901 0,0.22535 q -0.135211,1.2169 -1.239436,2.07324 -1.239437,0.96901 -2.974648,0.96901 -1.735211,0 -2.974648,-0.96901 -1.104225,-0.85634 -1.216901,-2.07324 l -0.02254,-0.22535 0,-0.0901 0,-0.0451 q 0.02254,-2.36619 1.239437,-4.0338 1.239437,-1.69014 2.974648,-1.69014 1.735211,0 2.974648,1.69014 1.216901,1.66761 1.239436,4.0338 l 0,0.0451 m 26.501409,0 0,0.0901 0,0.22535 q -0.112676,1.2169 -1.239437,2.07324 -1.239436,0.96901 -2.974648,0.96901 -1.735211,0 -2.974648,-0.96901 -1.104225,-0.85634 -1.216901,-2.07324 l -0.02253,-0.22535 0,-0.0901 0,-0.0451 q 0.02253,-2.36619 1.239436,-4.0338 1.239437,-1.69014 2.974648,-1.69014 1.735212,0 2.974648,1.69014 1.216902,1.66761 1.239437,4.0338 l 0,0.0451"
       id="path3237"
       inkscape:connector-curvature="0"
       style="fill:#333333;stroke:none"
       inkscape:export-filename="/home/jutice/Documents/projects/engine/examples/public/path3333.png"
       inkscape:export-xdpi="90"
       inkscape:export-ydpi="90" />
    <path
       d="m 41.419718,841.52276 q -9.397183,2.38874 -18.794366,0 l -0.06761,-0.4507 -0.04507,-1.03662 0,-5.16056 q 0,-1.23944 0.292958,-2.3662 l 0.135211,-0.45071 0.02254,-0.0901 q 0.653521,-2.09577 2.321127,-3.76338 2.794366,-2.77183 6.738028,-2.77183 3.943662,0 6.715493,2.77183 1.667606,1.66761 2.343662,3.76338 l 0.02253,0.0901 0.112676,0.45071 q 0.292958,1.12676 0.292958,2.3662 l 0,5.16056 -0.04507,1.03662 -0.04507,0.4507"
       id="path3239"
       inkscape:connector-curvature="0"
       style="fill:#5d9cf3;stroke:none"
       inkscape:export-filename="/home/jutice/Documents/projects/engine/examples/public/path3333.png"
       inkscape:export-xdpi="90"
       inkscape:export-ydpi="90" />
    <path
       d="m 41.419718,841.52276 q -0.450704,2.99719 -2.68169,5.22817 -2.771831,2.79437 -6.715493,2.79437 -3.943662,0 -6.738028,-2.79437 -2.230986,-2.23098 -2.659155,-5.22817 9.397183,2.38874 18.794366,0"
       id="path3241"
       inkscape:connector-curvature="0"
       style="fill:#397ede;stroke:none"
       inkscape:export-filename="/home/jutice/Documents/projects/engine/examples/public/path3333.png"
       inkscape:export-xdpi="90"
       inkscape:export-ydpi="90" />
    <path
       d="m 38.061972,806.14248 q 1.757746,3.04226 2.095774,5.70141 0.405634,2.63662 -0.833802,3.33521 -1.239437,0.72113 -3.357747,-0.92394 -2.073239,-1.64507 -3.830986,-4.68733 l -0.405634,-0.69859 q -0.721126,-1.44225 -0.540845,-2.92958 0.180282,-1.64507 1.419719,-2.36619 1.239436,-0.69859 2.771831,-0.0451 1.352112,0.58591 2.253521,1.93803 l 0.428169,0.67605"
       id="path3243"
       inkscape:connector-curvature="0"
       style="fill:#bb2905;stroke:none"
       inkscape:export-filename="/home/jutice/Documents/projects/engine/examples/public/path3333.png"
       inkscape:export-xdpi="90"
       inkscape:export-ydpi="90" />
    <path
       d="m 29.183099,809.6129 q -1.149296,2.02817 -2.569014,3.10986 -1.374648,1.10423 -2.185916,0.60845 -0.811268,-0.4507 -0.56338,-2.20845 0.247887,-1.75774 1.397183,-3.76338 l 0.270422,-0.47324 q 0.608451,-0.9014 1.50986,-1.2845 1.014084,-0.45071 1.825352,0.0225 0.811267,0.49578 0.946479,1.6 0.112676,0.94648 -0.360564,1.91549 l -0.270422,0.47324"
       id="path3245"
       inkscape:connector-curvature="0"
       style="fill:#bb2905;stroke:none"
       inkscape:export-filename="/home/jutice/Documents/projects/engine/examples/public/path3333.png"
       inkscape:export-xdpi="90"
       inkscape:export-ydpi="90" />
    <path
       d="m 114.68169,857.20727 q -1.46479,-4.89014 -3.87606,-9.10422 -6.12957,-10.7493 -14.80563,-10.7493 -8.676056,0 -14.828169,10.7493 -2.388732,4.21408 -3.853521,9.10422 l -6.264789,0 q -3.898591,0 -3.898591,-3.89859 l 0,-49.87042 q 0,-3.92113 3.898591,-3.92113 l 49.892959,0 q 3.89859,0 3.89859,3.92113 l 0,49.87042 q 0,3.89859 -3.89859,3.89859 l -6.26479,0"
       id="path3247"
       inkscape:connector-curvature="0"
       style="fill:#365a66;stroke:none"
       inkscape:export-filename="/home/jutice/Documents/projects/engine/examples/public/path3333.png"
       inkscape:export-xdpi="90"
       inkscape:export-ydpi="90" />
    <path
       d="m 114.68169,857.20727 -37.36338,0 q 1.464789,-4.89014 3.853521,-9.10422 6.152113,-10.7493 14.828169,-10.7493 8.67606,0 14.80563,10.7493 2.41127,4.21408 3.87606,9.10422"
       id="path3249"
       inkscape:connector-curvature="0"
       style="fill:#e5f3f7;stroke:none"
       inkscape:export-filename="/home/jutice/Documents/projects/engine/examples/public/path3333.png"
       inkscape:export-xdpi="90"
       inkscape:export-ydpi="90" />
    <path
       d="m 117.40845,821.91713 0.0676,0.24789 q 1.48732,5.54366 0.33802,10.02817 -1.17183,4.50704 -4.30422,5.34084 -3.1324,0.8338 -6.42254,-2.45634 -3.2676,-3.31267 -4.75493,-8.85634 l -0.0676,-0.24788 q -0.74366,-3.04226 0.85634,-5.76902 1.62253,-2.83943 4.75493,-3.67324 3.13239,-0.8338 5.97183,0.78874 2.70422,1.6 3.56056,4.59718 m -27.628168,4.07887 -0.06761,0.24789 q -1.487324,5.54366 -4.732394,8.8338 -3.267606,3.31268 -6.422536,2.47888 -3.132394,-0.85634 -4.304225,-5.34085 -1.194366,-4.50704 0.292958,-10.0507 l 0.06761,-0.24789 q 0.878873,-2.99718 3.605633,-4.57465 2.839437,-1.64507 5.971831,-0.78873 3.15493,0.8338 4.75493,3.6507 1.6,2.7493 0.833803,5.79155"
       id="path3251"
       inkscape:connector-curvature="0"
       style="fill:#f2f9fb;stroke:none"
       inkscape:export-filename="/home/jutice/Documents/projects/engine/examples/public/path3333.png"
       inkscape:export-xdpi="90"
       inkscape:export-ydpi="90" />
    <path
       d="m 87.369014,825.56783 0,0.0901 0,0.22536 q -0.135211,1.17183 -1.216901,2.00563 -1.194367,0.92394 -2.861972,0.92394 -1.690141,0 -2.884507,-0.92394 -1.08169,-0.8338 -1.171831,-2.00563 l -0.02253,-0.22536 0,-0.0901 0,-0.0451 q 0.02253,-2.27605 1.194366,-3.89859 1.194366,-1.62253 2.884507,-1.62253 1.667605,0 2.861972,1.62253 1.194366,1.62254 1.216901,3.89859 l 0,0.0451 m 25.645071,0 0,0.0901 0,0.22536 q -0.11267,1.17183 -1.2169,2.00563 -1.19436,0.92394 -2.86197,0.92394 -1.69014,0 -2.88451,-0.92394 -1.05915,-0.8338 -1.17183,-2.00563 l -0.0225,-0.22536 0,-0.0901 0,-0.0451 q 0.0225,-2.27605 1.19436,-3.89859 1.19437,-1.62253 2.88451,-1.62253 1.66761,0 2.86197,1.62253 1.19437,1.62254 1.2169,3.89859 l 0,0.0451"
       id="path3253"
       inkscape:connector-curvature="0"
       style="fill:#333333;stroke:none"
       inkscape:export-filename="/home/jutice/Documents/projects/engine/examples/public/path3333.png"
       inkscape:export-xdpi="90"
       inkscape:export-ydpi="90" />
    <path
       d="m 103.21127,835.82135 q -0.13521,1.6 -2.09578,2.7493 -2.095772,1.23944 -5.092955,1.23944 -2.997183,0 -5.115493,-1.23944 -1.938028,-1.1493 -2.095774,-2.7493 l -0.02254,-0.47323 q 0,-2.99719 2.11831,-5.1155 2.11831,-2.09577 5.115493,-2.09577 2.997183,0 5.092959,2.09577 2.11831,2.11831 2.11831,5.1155 l -0.0225,0.47323"
       id="path3255"
       inkscape:connector-curvature="0"
       style="fill:#ff9900;stroke:none"
       inkscape:export-filename="/home/jutice/Documents/projects/engine/examples/public/path3333.png"
       inkscape:export-xdpi="90"
       inkscape:export-ydpi="90" />
    <path
       d="m 188.84507,995.43826 0,49.87044 q 0,3.8986 -3.89859,3.8986 l -49.89296,0 q -3.89859,0 -3.89859,-3.8986 l 0,-49.87044 q 0,-3.92113 3.89859,-3.92113 l 49.89296,0 q 3.89859,0 3.89859,3.92113"
       id="path3257"
       inkscape:connector-curvature="0"
       style="fill:#a16639;stroke:none"
       inkscape:export-filename="/home/jutice/Documents/projects/engine/examples/public/path3333.png"
       inkscape:export-xdpi="90"
       inkscape:export-ydpi="90" />
    <path
       d="m 180.25915,1004.565 q 3.78592,3.7859 3.78592,9.1268 0,5.3408 -3.78592,9.1493 l -0.0225,0 q -1.01408,0.9915 -2.16338,1.7577 -0.0451,7.4817 -5.36338,12.8 -5.36338,5.3409 -12.93521,5.3409 -7.57183,0 -12.93521,-5.3409 -5.31831,-5.3183 -5.36338,-12.8225 -1.12676,-0.7437 -2.14085,-1.7352 l -0.0225,0 q -3.78592,-3.8085 -3.78592,-9.1493 0,-5.3409 3.78592,-9.1268 3.78591,-3.7859 9.14929,-3.7859 5.31831,0 9.10423,3.7859 l 1.39718,1.6226 0.81127,0 0.81127,0 1.39718,-1.6226 q 3.78591,-3.7859 9.14929,-3.7859 5.31831,0 9.12676,3.7859"
       id="path3259"
       inkscape:connector-curvature="0"
       style="fill:#bf8559;stroke:none"
       inkscape:export-filename="/home/jutice/Documents/projects/engine/examples/public/path3333.png"
       inkscape:export-xdpi="90"
       inkscape:export-ydpi="90" />
    <path
       d="m 157.5662,1024.689 q -0.60845,0.5633 -1.41972,0.5633 -0.78873,0 -1.35211,-0.5408 l -0.0451,-0.068 q -1.01409,-0.9916 -1.30705,-2.0958 -0.31549,-1.1493 0.27043,-1.7127 0.56338,-0.5633 1.69014,-0.2704 1.12676,0.338 2.11831,1.3296 l 0.0676,0.045 q 0.54085,0.5408 0.54085,1.3521 0,0.8112 -0.56338,1.3972 m 4.93521,-2.7944 q 0.99155,-0.9916 2.09577,-1.3296 1.1493,-0.2929 1.71268,0.2704 0.56338,0.5634 0.27042,1.7127 -0.31549,1.1042 -1.32958,2.0958 l -0.0451,0.068 q -0.56338,0.5408 -1.35211,0.5408 -0.81127,0 -1.37465,-0.5633 -0.58591,-0.586 -0.58591,-1.3972 0,-0.8113 0.54084,-1.3521 l 0.0676,-0.045"
       id="path3261"
       inkscape:connector-curvature="0"
       style="fill:#a16639;stroke:none"
       inkscape:export-filename="/home/jutice/Documents/projects/engine/examples/public/path3333.png"
       inkscape:export-xdpi="90"
       inkscape:export-ydpi="90" />
    <path
       d="m 151.07606,1015.134 0,0.09 0,0.2253 q -0.13521,1.2169 -1.23944,2.0733 -1.23944,0.969 -2.97465,0.969 -1.73521,0 -2.97465,-0.969 -1.10422,-0.8564 -1.2169,-2.0733 l -0.0225,-0.2253 0,-0.09 0,-0.045 q 0.0225,-2.3662 1.23943,-4.0338 1.23944,-1.6902 2.97465,-1.6902 1.73521,0 2.97465,1.6902 1.2169,1.6676 1.23944,4.0338 l 0,0.045 m 26.5014,0 0,0.09 0,0.2253 q -0.11267,1.2169 -1.23943,2.0733 -1.23944,0.969 -2.97465,0.969 -1.73521,0 -2.97465,-0.969 -1.10422,-0.8564 -1.2169,-2.0733 l -0.0225,-0.2253 0,-0.09 0,-0.045 q 0.0225,-2.3662 1.23943,-4.0338 1.23944,-1.6902 2.97465,-1.6902 1.73521,0 2.97465,1.6902 1.2169,1.6676 1.23943,4.0338 l 0,0.045"
       id="path3263"
       inkscape:connector-curvature="0"
       style="fill:#333333;stroke:none"
       inkscape:export-filename="/home/jutice/Documents/projects/engine/examples/public/path3333.png"
       inkscape:export-xdpi="90"
       inkscape:export-ydpi="90" />
    <path
       d="m 167.00845,1027.4157 q 1.5324,-0.6535 3.10986,0 1.55493,0.631 2.18592,2.1859 0.65352,1.555 0.0225,3.1324 -0.63099,1.5324 -2.16338,2.2085 -9.05915,3.8986 -20.01127,0.09 -1.62253,-0.5634 -2.34366,-2.0732 -0.74366,-1.5324 -0.18028,-3.1099 0.54084,-1.6 2.07324,-2.3436 1.53239,-0.7212 3.10986,-0.1803 7.75211,2.7042 14.19718,0.1127"
       id="path3265"
       inkscape:connector-curvature="0"
       style="fill:#ffffff;stroke:none"
       inkscape:export-filename="/home/jutice/Documents/projects/engine/examples/public/path3333.png"
       inkscape:export-xdpi="90"
       inkscape:export-ydpi="90" />
    <path
       d="m 77.025352,863.51713 37.971828,0 q -0.0225,3.5831 1.08169,7.66197 1.75775,6.58028 5.29578,10.61409 1.78028,2.00563 3.47042,2.79436 l 0,32.72113 q 0,3.89859 -3.89859,3.89859 l -3.40282,0 q -0.72112,-4.46197 -6.24225,-7.72958 -6.3324,-3.76338 -15.30141,-3.76338 -8.969014,0 -15.301408,3.76338 -5.521127,3.26761 -6.219719,7.72958 l -3.425352,0 q -3.898591,0 -3.898591,-3.89859 l 0,-32.72113 q 1.712676,-0.78873 3.470422,-2.79436 3.538028,-4.03381 5.295775,-10.61409 1.104225,-4.07887 1.104225,-7.66197"
       id="path3267"
       inkscape:connector-curvature="0"
       style="fill:#ffffff;stroke:none"
       inkscape:export-filename="/home/jutice/Documents/projects/engine/examples/public/path3333.png"
       inkscape:export-xdpi="90"
       inkscape:export-ydpi="90" />
    <path
       d="m 77.025352,863.51713 q 0,3.5831 -1.104225,7.66197 -1.757747,6.58028 -5.295775,10.61409 -1.757746,2.00563 -3.470422,2.79436 l 0,-17.14929 q 0,-3.92113 3.898591,-3.92113 l 5.971831,0 m 37.971828,0 5.9493,0 q 3.89859,0 3.89859,3.92113 l 0,17.14929 q -1.69014,-0.78873 -3.47042,-2.79436 -3.53803,-4.03381 -5.29578,-10.61409 -1.10422,-4.07887 -1.08169,-7.66197"
       id="path3269"
       inkscape:connector-curvature="0"
       style="fill:#414141;stroke:none"
       inkscape:export-filename="/home/jutice/Documents/projects/engine/examples/public/path3333.png"
       inkscape:export-xdpi="90"
       inkscape:export-ydpi="90" />
    <path
       d="m 117.54366,921.20727 -43.064787,0 q 0.698592,-4.46197 6.219719,-7.72958 6.332394,-3.76338 15.301408,-3.76338 8.96901,0 15.30141,3.76338 5.52113,3.26761 6.24225,7.72958"
       id="path3271"
       inkscape:connector-curvature="0"
       style="fill:#eeeeee;stroke:none"
       inkscape:export-filename="/home/jutice/Documents/projects/engine/examples/public/path3333.png"
       inkscape:export-xdpi="90"
       inkscape:export-ydpi="90" />
    <path
       d="m 113.35211,883.84389 q 3.17747,1.84789 4.68733,4.4169 1.50986,2.56902 0.47324,4.37183 -1.03662,1.80282 -4.03381,1.78028 -2.97464,0 -6.15211,-1.87042 l -0.13521,-0.0901 q -1.71268,-1.01408 -2.23099,-2.97465 -0.54084,-2.00563 0.47324,-3.80845 1.05916,-1.80281 3.06479,-2.34366 1.96056,-0.51831 3.71831,0.42817 l 0.13521,0.0901"
       id="path3273"
       inkscape:connector-curvature="0"
       style="fill:#272626;stroke:none"
       inkscape:export-filename="/home/jutice/Documents/projects/engine/examples/public/path3333.png"
       inkscape:export-xdpi="90"
       inkscape:export-ydpi="90" />
    <path
       d="m 83.808451,892.45234 -0.135212,0.0901 q -3.177464,1.84789 -6.152112,1.87042 -2.997183,0 -4.033803,-1.78028 -1.03662,-1.80281 0.473239,-4.37183 1.50986,-2.56901 4.687324,-4.4169 l 0.135212,-0.0901 q 1.757746,-0.94648 3.718309,-0.42817 2.005634,0.54085 3.064789,2.34366 1.03662,1.80282 0.495775,3.80845 -0.540845,1.96057 -2.253521,2.97465"
       id="path3275"
       inkscape:connector-curvature="0"
       style="fill:#272626;stroke:none"
       inkscape:export-filename="/home/jutice/Documents/projects/engine/examples/public/path3333.png"
       inkscape:export-xdpi="90"
       inkscape:export-ydpi="90" />
    <path
       d="m 96,901.80445 q -2.771831,0 -4.732394,-1.96056 -1.938029,-1.93803 -1.938029,-4.70986 l 0,-0.47324 q 0.157747,-1.2169 1.938029,-2.09577 1.960563,-0.94648 4.732394,-0.94648 2.749296,0 4.70986,0.94648 1.78028,0.87887 1.93803,2.09577 l 0.0225,0.47324 q 0,2.77183 -1.96056,4.70986 -1.960564,1.96056 -4.70986,1.96056"
       id="path3277"
       inkscape:connector-curvature="0"
       style="fill:#272626;stroke:none"
       inkscape:export-filename="/home/jutice/Documents/projects/engine/examples/public/path3333.png"
       inkscape:export-xdpi="90"
       inkscape:export-ydpi="90" />
    <path
       d="m 107.83099,902.84107 q -0.49578,0.92395 -1.30705,1.75775 -2.16338,2.14084 -5.18309,2.14084 -3.019723,0 -5.160568,-2.14084 l -0.157747,-0.15775 -0.157746,0.15775 q -2.163381,2.14084 -5.183099,2.14084 -3.019718,0 -5.160563,-2.14084 -0.811268,-0.81127 -1.307042,-1.71268 -0.09014,-0.18028 -0.02254,-0.33802 l 0.202817,-0.27043 2.366197,-1.30704 0.338029,-0.0451 0.270422,0.22535 0.698592,0.90141 q 1.08169,1.08169 2.614084,1.08169 1.532395,0 2.63662,-1.08169 0.698591,-0.72113 0.946479,-1.62253 l 1.059155,-3.71831 q 0.04507,-0.15775 0.157746,-0.24789 l 0.270423,-0.0901 0.450704,0 0.270422,0.0901 0.157747,0.22535 1.104225,3.69578 0.02253,0 q 0.247888,0.92394 0.969015,1.64507 1.08169,1.08169 2.614088,1.08169 1.53239,0 2.63661,-1.08169 l 0.63099,-0.85634 q 0.0901,-0.18028 0.27042,-0.22535 l 0.33803,0 2.41127,1.23943 q 0.15775,0.0676 0.22535,0.27042 l -0.0225,0.33803"
       id="path3279"
       inkscape:connector-curvature="0"
       style="fill:#272626;stroke:none"
       inkscape:export-filename="/home/jutice/Documents/projects/engine/examples/public/path3333.png"
       inkscape:export-xdpi="90"
       inkscape:export-ydpi="90" />
    <path
       d="m 3.1549296,1036.8354 0,-41.39714 q 0,-3.92113 3.8985915,-3.92113 l 49.8929579,0 q 3.898591,0 3.898591,3.92113 l 0,41.37464 q -1.442253,-1.3296 -3.154929,-2.569 -10.63662,-7.7071 -25.690141,-7.7071 -15.030986,0 -25.6676056,7.7071 -1.7352113,1.2394 -3.1774648,2.5915"
       id="path3281"
       inkscape:connector-curvature="0"
       style="fill:#ffcc00;stroke:none"
       inkscape:export-filename="/home/jutice/Documents/projects/engine/examples/public/path3333.png"
       inkscape:export-xdpi="90"
       inkscape:export-ydpi="90" />
    <path
       d="m 3.1549296,1036.8354 q 1.4422535,-1.3521 3.1774648,-2.5915 Q 16.969014,1026.5368 32,1026.5368 q 15.053521,0 25.690141,7.7071 1.712676,1.2394 3.154929,2.569 l 0,8.4958 q 0,3.8986 -3.898591,3.8986 l -49.8929579,0 q -3.8985915,0 -3.8985915,-3.8986 l 0,-8.4733"
       id="path3283"
       inkscape:connector-curvature="0"
       style="fill:#cba200;stroke:none"
       inkscape:export-filename="/home/jutice/Documents/projects/engine/examples/public/path3333.png"
       inkscape:export-xdpi="90"
       inkscape:export-ydpi="90" />
    <path
       d="m 40.56338,1032.1707 q 0.698592,0.6985 0.315493,2.0281 -0.360563,1.3296 -1.554929,2.524 l -0.06761,0.068 q -0.676056,0.631 -1.6,0.631 -0.969014,0 -1.64507,-0.6761 -0.676057,-0.6761 -0.676057,-1.6451 0,-0.9465 0.630986,-1.6 l 0.06761,-0.068 q 1.194366,-1.1943 2.523943,-1.5549 1.329578,-0.3831 2.005634,0.293 m -15.369014,4.6197 -0.06761,-0.068 q -1.194367,-1.1944 -1.55493,-2.524 -0.383099,-1.3296 0.315493,-2.0281 0.676056,-0.6761 2.005634,-0.293 1.329577,0.3606 2.523943,1.5549 l 0.06761,0.068 q 0.630986,0.6535 0.630986,1.6 0,0.969 -0.676056,1.6451 -0.676057,0.6761 -1.645071,0.6761 -0.923943,0 -1.6,-0.631"
       id="path3285"
       inkscape:connector-curvature="0"
       style="fill:#a38200;stroke:none"
       inkscape:export-filename="/home/jutice/Documents/projects/engine/examples/public/path3333.png"
       inkscape:export-xdpi="90"
       inkscape:export-ydpi="90" />
    <path
       d="m 20.957746,1019.8664 0,0.1127 0,0.2704 q -0.157746,1.5324 -1.554929,2.6141 -1.55493,1.2169 -3.740845,1.2169 -2.185916,0 -3.740845,-1.2169 -1.397183,-1.0817 -1.532395,-2.6141 l -0.02253,-0.2704 0,-0.1127 0,-0.068 q 0.02253,-2.9746 1.55493,-5.0704 1.554929,-2.1408 3.740845,-2.1408 2.185915,0 3.740845,2.1408 1.532394,2.0958 1.554929,5.0704 l 0,0.068"
       id="path3287"
       inkscape:connector-curvature="0"
       style="fill:#543209;stroke:none"
       inkscape:export-filename="/home/jutice/Documents/projects/engine/examples/public/path3333.png"
       inkscape:export-xdpi="90"
       inkscape:export-ydpi="90" />
    <path
       d="m 54.309859,1019.8664 0,0.1127 0,0.2704 q -0.157746,1.5324 -1.554929,2.6141 -1.55493,1.2169 -3.740845,1.2169 -2.185916,0 -3.740846,-1.2169 -1.397183,-1.0817 -1.532394,-2.6141 l -0.02253,-0.2704 0,-0.1127 0,-0.068 q 0.02253,-2.9746 1.554929,-5.0704 1.55493,-2.1408 3.740846,-2.1408 2.185915,0 3.740845,2.1408 1.532394,2.0958 1.554929,5.0704 l 0,0.068"
       id="path3289"
       inkscape:connector-curvature="0"
       style="fill:#543209;stroke:none"
       inkscape:export-filename="/home/jutice/Documents/projects/engine/examples/public/path3333.png"
       inkscape:export-xdpi="90"
       inkscape:export-ydpi="90" />
    <path
       d="m 36.461972,1010.8073 -4.394366,-3.1775 q -0.315493,-0.2479 -0.428169,-0.6084 -0.112676,-0.3606 0,-0.7212 l 1.667605,-5.1605 q 0.112676,-0.3831 0.428169,-0.6085 0.292958,-0.2253 0.698592,-0.2253 l 5.430986,0 q 0.405634,0 0.721126,0.2253 0.292958,0.2254 0.405634,0.6085 l 1.667606,5.1605 q 0.112676,0.3606 0,0.7212 -0.112676,0.3605 -0.405634,0.6084 l -4.371831,3.1775 q -0.315493,0.2253 -0.721127,0.2253 -0.383098,0 -0.698591,-0.2253 m -5.701409,-7.1888 -2.230986,3.0648 q -0.225352,0.293 -0.585915,0.4057 -0.383099,0.1126 -0.743662,0 l -3.583099,-1.1719 q -0.383098,-0.1126 -0.60845,-0.4056 -0.225352,-0.3155 -0.225352,-0.7211 l 0,-3.7859 q 0,-0.3831 0.225352,-0.6761 0.225352,-0.3155 0.60845,-0.45071 L 27.2,998.7284 q 0.360563,-0.13521 0.743662,0 0.360563,0.11267 0.585915,0.42817 l 2.230986,3.06483 q 0.202817,0.3154 0.202817,0.6985 l -0.202817,0.6986 m -3.876056,10.6592 -0.585915,-2.7493 q -0.09014,-0.4056 0.06761,-0.7437 0.157747,-0.3831 0.495775,-0.5633 l 2.456338,-1.4198 q 0.338028,-0.1802 0.721127,-0.1352 0.383098,0 0.676056,0.293 l 2.095775,1.8929 q 0.270422,0.2479 0.360563,0.6536 0.06761,0.3605 -0.09014,0.7211 l -1.149296,2.569 -0.495774,0.5634 q -0.338028,0.2028 -0.721127,0.1577 l -2.794366,-0.2929 -0.676057,-0.293 q -0.270422,-0.2929 -0.360563,-0.6535"
       id="path3291"
       inkscape:connector-curvature="0"
       style="fill:#e9bb00;stroke:none"
       inkscape:export-filename="/home/jutice/Documents/projects/engine/examples/public/path3333.png"
       inkscape:export-xdpi="90"
       inkscape:export-ydpi="90" />
    <path
       d="m 7.0535211,863.47206 49.8929579,0 q 3.898591,0 3.898591,3.92113 l 0,49.87042 q 0,3.89859 -3.898591,3.89859 l -49.8929574,0 q -3.8985918,0 -3.8985918,-3.89859 l 0,-49.87042 q 0,-3.92113 3.8985918,-3.92113"
       id="path3293"
       inkscape:connector-curvature="0"
       style="fill:#d2d0d0;stroke:none"
       inkscape:export-filename="/home/jutice/Documents/projects/engine/examples/public/path3333.png"
       inkscape:export-xdpi="90"
       inkscape:export-ydpi="90" />
    <path
       d="m 37.543662,905.38755 q 0,2.47888 -1.757747,4.21409 -1.735211,1.75774 -4.214084,1.75774 -2.478873,0 -4.23662,-1.75774 Q 25.6,907.86643 25.6,905.38755 q 0,-2.47887 1.735211,-4.23662 1.757747,-1.73521 4.23662,-1.73521 2.478873,0 4.214084,1.73521 1.757747,1.75775 1.757747,4.23662"
       id="path3295"
       inkscape:connector-curvature="0"
       style="fill:#b1b1b1;stroke:none"
       inkscape:export-filename="/home/jutice/Documents/projects/engine/examples/public/path3333.png"
       inkscape:export-xdpi="90"
       inkscape:export-ydpi="90" />
    <path
       d="m 25.442254,892.3622 13.543661,0 q 3.312677,0.0676 5.678875,2.4338 2.433802,2.43381 2.433802,5.85916 0,3.44789 -2.433802,5.90422 -2.456339,2.41127 -5.881691,2.41127 -3.447887,0 -5.88169,-2.41127 L 32,905.47769 l -0.901408,1.08169 q -2.456338,2.41127 -5.904225,2.41127 -3.425352,0 -5.859155,-2.41127 -2.433803,-2.45633 -2.433803,-5.90422 0,-3.42535 2.433803,-5.85916 2.433803,-2.4338 5.859155,-2.4338 l 0.247887,0"
       id="path3297"
       inkscape:connector-curvature="0"
       style="fill:#ffffff;stroke:none"
       inkscape:export-filename="/home/jutice/Documents/projects/engine/examples/public/path3333.png"
       inkscape:export-xdpi="90"
       inkscape:export-ydpi="90" />
    <path
       d="m 36.980282,888.17065 q 1.780281,0.87887 1.938028,2.09578 l 0.02254,0.47323 q 0,2.77184 -1.960563,4.70986 -1.960563,1.96057 -4.709859,1.96057 -2.771831,0 -4.732395,-1.96057 Q 25.6,893.5115 25.6,890.73966 l 0,-0.47323 q 0.157746,-1.21691 1.938028,-2.09578 1.960564,-0.94648 4.732395,-0.94648 2.749295,0 4.709859,0.94648"
       id="path3299"
       inkscape:connector-curvature="0"
       style="fill:#ee9fee;stroke:none"
       inkscape:export-filename="/home/jutice/Documents/projects/engine/examples/public/path3333.png"
       inkscape:export-xdpi="90"
       inkscape:export-ydpi="90" />
    <path
       d="m 22.377465,887.15657 0,0.0901 0,0.24788 q -0.135211,1.32958 -1.374648,2.27606 -1.352113,1.05916 -3.267606,1.05916 -1.915493,0 -3.267605,-1.05916 -1.216902,-0.94648 -1.352113,-2.27606 l 0,-0.24788 0,-0.0901 0,-0.0676 q 0,-2.59155 1.352113,-4.43944 1.352112,-1.87042 3.267605,-1.87042 1.915493,0 3.267606,1.87042 1.352113,1.84789 1.374648,4.43944 l 0,0.0676"
       id="path3301"
       inkscape:connector-curvature="0"
       style="fill:#543209;stroke:none"
       inkscape:export-filename="/home/jutice/Documents/projects/engine/examples/public/path3333.png"
       inkscape:export-xdpi="90"
       inkscape:export-ydpi="90" />
    <path
       d="m 51.560563,887.15657 0,0.0901 0,0.24788 q -0.157746,1.32958 -1.374648,2.27606 -1.352112,1.05916 -3.267605,1.05916 -1.915493,0 -3.267605,-1.05916 -1.239437,-0.94648 -1.352113,-2.27606 l -0.02254,-0.24788 0,-0.0901 0,-0.0676 q 0.02254,-2.59155 1.374649,-4.43944 1.352112,-1.87042 3.267605,-1.87042 1.915493,0 3.267605,1.87042 1.352113,1.84789 1.374648,4.43944 l 0,0.0676"
       id="path3303"
       inkscape:connector-curvature="0"
       style="fill:#543209;stroke:none"
       inkscape:export-filename="/home/jutice/Documents/projects/engine/examples/public/path3333.png"
       inkscape:export-xdpi="90"
       inkscape:export-ydpi="90" />
    <path
       d="m 42.185915,900.76783 q 5.994367,-0.0451 8.901409,2.95212 L 51.2,903.96783 51.087324,904.21572 49.6,905.68051 l -0.247887,0.11268 -0.225352,-0.11268 q -2.298592,-2.16338 -6.940846,-2.11831 l -0.247887,-0.0901 -0.09014,-0.27042 -0.02253,-2.07324 q -0.02254,-0.15775 0.09014,-0.24789 0.112676,-0.11268 0.270422,-0.11268 m 10.478874,-4.21408 -0.270423,2.07324 -0.135211,0.24789 -0.247887,0.0676 q -4.845071,-0.65352 -9.374647,0.96902 l -0.247888,0 -0.202817,-0.20282 -0.698591,-1.96056 q -0.04507,-0.15775 0.02254,-0.27043 l 0.202817,-0.18028 q 5.138028,-1.84789 10.659154,-1.10422 l 0.225353,0.13521 0.06761,0.24788 m -31.00845,4.21409 0.270422,0.11268 0.09014,0.24788 -0.02254,2.07324 -0.112676,0.27042 -0.247887,0.0901 q -4.619719,-0.0451 -6.91831,2.11831 l -0.247887,0.11267 -0.225353,-0.11267 -1.487324,-1.46479 -0.112676,-0.24789 q 0,-0.15775 0.112676,-0.24789 2.884508,-2.99718 8.901409,-2.95211 M 11.15493,896.57628 q 0,-0.13521 0.06761,-0.24788 l 0.247887,-0.13521 q 5.521127,-0.74367 10.63662,1.10422 l 0.225352,0.18028 0,0.27043 -0.698591,1.96056 -0.180282,0.20282 -0.270423,0 q -4.507042,-1.62254 -9.352112,-0.96902 l -0.247888,-0.0676 -0.135211,-0.24789 -0.292958,-2.07324"
       id="path3305"
       inkscape:connector-curvature="0"
       style="fill:#b1b1b1;stroke:none"
       inkscape:export-filename="/home/jutice/Documents/projects/engine/examples/public/path3333.png"
       inkscape:export-xdpi="90"
       inkscape:export-ydpi="90" />
    <path
       d="m 3.1549296,972.90305 0,-41.46479 q 0,-3.92113 3.8985915,-3.92113 l 49.8929579,0 q 3.898591,0 3.898591,3.92113 l 0,41.46479 q -12.236619,-5.74648 -28.845071,-5.74648 -16.60845,0 -28.8450694,5.74648"
       id="path3307"
       inkscape:connector-curvature="0"
       style="fill:#66cc33;stroke:none"
       inkscape:export-filename="/home/jutice/Documents/projects/engine/examples/public/path3333.png"
       inkscape:export-xdpi="90"
       inkscape:export-ydpi="90" />
    <path
       d="m 3.1549296,972.90305 q 12.2366194,-5.74648 28.8450694,-5.74648 16.608452,0 28.845071,5.74648 l 0,8.40563 q 0,3.89859 -3.898591,3.89859 l -49.8929579,0 q -3.8985915,0 -3.8985915,-3.89859 l 0,-8.40563"
       id="path3309"
       inkscape:connector-curvature="0"
       style="fill:#79db48;stroke:none"
       inkscape:export-filename="/home/jutice/Documents/projects/engine/examples/public/path3333.png"
       inkscape:export-xdpi="90"
       inkscape:export-ydpi="90" />
    <path
       d="m 45.678873,937.45516 q -0.247887,0.58591 -0.788734,0.87887 -12.912676,6.55775 -26.952111,0.0451 l -0.02253,-0.0451 q -0.653521,-0.33803 -0.856338,-0.94648 -0.202817,-0.58591 0,-1.14929 0.225352,-0.65352 0.901408,-0.94648 l -0.02254,0 q 14.039435,-6.53521 26.952111,0.0451 l -0.04507,-0.0451 q 0.585917,0.24788 0.856339,0.94648 0.202817,0.54084 0,1.14929 l -0.02253,0.0451 M 22.692963,948.7904 q -0.563381,-0.27042 -0.721127,-0.7662 -0.202817,-0.47324 -0.02254,-0.92394 0.157746,-0.58592 0.766197,-0.81127 9.059154,-4.23662 17.397182,0 l 0.02253,0.0451 q 0.495775,0.22535 0.698591,0.7662 0.157747,0.4507 -0.04507,0.92394 l 0.04507,-0.0451 q -0.202816,0.51831 -0.698591,0.7662 l -0.02253,0.0451 q -8.360564,4.21408 -17.442252,0 l 0.02254,0"
       id="path3311"
       inkscape:connector-curvature="0"
       style="fill:#79db48;stroke:none"
       inkscape:export-filename="/home/jutice/Documents/projects/engine/examples/public/path3333.png"
       inkscape:export-xdpi="90"
       inkscape:export-ydpi="90" />
    <path
       d="m 41.284506,971.66361 q 0.721126,0.72113 0.338028,2.11831 -0.383099,1.41972 -1.645071,2.65915 l -0.06761,0.0676 q -0.698592,0.67606 -1.690141,0.67606 -1.014085,0 -1.735211,-0.72113 -0.721127,-0.72113 -0.721127,-1.73521 0,-0.99155 0.676056,-1.69014 l 0.06761,-0.0676 q 1.261972,-1.23944 2.659155,-1.62253 1.397183,-0.40564 2.11831,0.31549 m -13.769013,4.8 q -0.721127,0.72113 -1.735211,0.72113 -0.969014,0 -1.690141,-0.67606 l -0.06761,-0.0676 q -1.239436,-1.23943 -1.64507,-2.65915 -0.383099,-1.39718 0.338028,-2.11831 0.721127,-0.72113 2.11831,-0.31549 1.397183,0.38309 2.659155,1.62253 l 0.0676,0.0676 q 0.676055,0.69859 0.676055,1.69014 0,1.01408 -0.721125,1.73521"
       id="path3313"
       inkscape:connector-curvature="0"
       style="fill:#549f2e;stroke:none"
       inkscape:export-filename="/home/jutice/Documents/projects/engine/examples/public/path3333.png"
       inkscape:export-xdpi="90"
       inkscape:export-ydpi="90" />
    <path
       d="m 48.022535,955.05516 0.09014,0 0.247887,0 q 1.329578,0.13521 2.298592,1.37465 1.059155,1.35211 1.059155,3.29014 0,1.91549 -1.059155,3.29014 -0.969014,1.2169 -2.298592,1.32957 l -0.247887,0 -0.09014,0 -0.06761,0 -2.276057,-0.31549 q -1.216903,-0.33803 -2.185917,-1.03662 -1.870422,-1.37465 -1.870422,-3.29014 0,-1.93803 1.870422,-3.29014 0.969014,-0.72113 2.185917,-1.08169 l 2.276057,-0.29296 0.06761,0 m -32.04507,9.30704 -0.09014,0 -0.247887,0 q -1.329578,-0.13521 -2.298592,-1.35211 -1.059155,-1.37465 -1.059155,-3.29014 0,-1.93803 1.059155,-3.29014 0.969014,-1.23944 2.298592,-1.35211 l 0.247887,0 0.09014,0 0.0676,0 q 1.239437,0 2.276057,0.31549 1.216901,0.33803 2.185915,1.05916 1.870423,1.35211 1.870423,3.29014 0,1.91549 -1.870423,3.29014 -0.969014,0.69859 -2.185915,1.05915 l -2.276057,0.29296 -0.0676,0"
       id="path3315"
       inkscape:connector-curvature="0"
       style="fill:#333333;stroke:none"
       inkscape:export-filename="/home/jutice/Documents/projects/engine/examples/public/path3333.png"
       inkscape:export-xdpi="90"
       inkscape:export-ydpi="90" />
    <path
       d="m 124.84507,931.43826 0,49.87042 q 0,3.89859 -3.89859,3.89859 l -49.892959,0 q -3.898591,0 -3.898591,-3.89859 l 0,-49.87042 q 0,-3.92113 3.898591,-3.92113 l 49.892959,0 q 3.89859,0 3.89859,3.92113"
       id="path3317"
       inkscape:connector-curvature="0"
       style="fill:#ee9fee;stroke:none"
       inkscape:export-filename="/home/jutice/Documents/projects/engine/examples/public/path3333.png"
       inkscape:export-xdpi="90"
       inkscape:export-ydpi="90" />
    <path
       d="m 96.450704,954.98755 q 4.259156,0 7.256336,2.99719 2.99719,3.01971 2.99719,7.25633 0,4.25916 -2.99719,7.25634 -2.99718,2.99718 -7.256336,2.99718 -4.236619,0 -7.256338,-2.99718 -2.997183,-2.99718 -2.997183,-7.25634 0,-4.23662 2.997183,-7.25633 3.019719,-2.99719 7.256338,-2.99719"
       id="path3319"
       inkscape:connector-curvature="0"
       style="fill:#cd76cd;stroke:none"
       inkscape:export-filename="/home/jutice/Documents/projects/engine/examples/public/path3333.png"
       inkscape:export-xdpi="90"
       inkscape:export-ydpi="90" />
    <path
       d="m 98.952113,965.10586 q 0.991549,-0.99155 2.095777,-1.32958 1.14929,-0.29295 1.71267,0.27043 0.56338,0.56338 0.27043,1.71267 -0.3155,1.10423 -1.32958,2.09578 l -0.0451,0.0676 q -0.56338,0.54085 -1.35211,0.54085 -0.811272,0 -1.374653,-0.56338 -0.585915,-0.58592 -0.585915,-1.39718 0,-0.81127 0.540845,-1.35212 l 0.06761,-0.0451 m -4.980282,0 0.06761,0.0451 q 0.540845,0.54085 0.540845,1.35212 0,0.81126 -0.563381,1.39718 -0.60845,0.56338 -1.419718,0.56338 -0.788732,0 -1.352113,-0.54085 L 91.2,967.85516 q -1.014085,-0.99155 -1.307042,-2.09578 -0.315493,-1.14929 0.270422,-1.71267 0.563381,-0.56338 1.690141,-0.27043 1.126761,0.33803 2.11831,1.32958"
       id="path3321"
       inkscape:connector-curvature="0"
       style="fill:#ee9fee;stroke:none"
       inkscape:export-filename="/home/jutice/Documents/projects/engine/examples/public/path3333.png"
       inkscape:export-xdpi="90"
       inkscape:export-ydpi="90" />
    <path
       d="m 85.047887,957.64671 0,0.11267 0,0.27043 q -0.157746,1.53239 -1.554929,2.61408 -1.55493,1.2169 -3.740845,1.2169 -2.185916,0 -3.740845,-1.2169 -1.397183,-1.08169 -1.532395,-2.61408 l -0.02253,-0.27043 0,-0.11267 0,-0.0676 q 0.02253,-2.97465 1.55493,-5.07042 1.554929,-2.14085 3.740845,-2.14085 2.185915,0 3.740845,2.14085 1.532394,2.09577 1.554929,5.07042 l 0,0.0676 m 33.352118,0 0,0.11267 0,0.27043 q -0.15775,1.53239 -1.55493,2.61408 -1.55493,1.2169 -3.74084,1.2169 -2.18592,0 -3.74085,-1.2169 -1.39718,-1.08169 -1.53239,-2.61408 l -0.0225,-0.27043 0,-0.11267 0,-0.0676 q 0.0225,-2.97465 1.55493,-5.07042 1.55493,-2.14085 3.74085,-2.14085 2.18591,0 3.74084,2.14085 1.53239,2.09577 1.55493,5.07042 l 0,0.0676"
       id="path3323"
       inkscape:connector-curvature="0"
       style="fill:#333333;stroke:none"
       inkscape:export-filename="/home/jutice/Documents/projects/engine/examples/public/path3333.png"
       inkscape:export-xdpi="90"
       inkscape:export-ydpi="90" />
    <path
       d="m 67.15493,1032.3284 0,-36.89014 q 0,-3.92113 3.898591,-3.92113 l 49.892959,0 q 3.89859,0 3.89859,3.92113 l 0,36.86764 q -1.44225,-1.3296 -3.15493,-2.5691 -10.63662,-7.707 -25.69014,-7.707 -15.030986,0 -25.667606,7.707 -1.735211,1.2395 -3.177464,2.5916"
       id="path3325"
       inkscape:connector-curvature="0"
       style="fill:#528cdb;stroke:none"
       inkscape:export-filename="/home/jutice/Documents/projects/engine/examples/public/path3333.png"
       inkscape:export-xdpi="90"
       inkscape:export-ydpi="90" />
    <path
       d="m 67.15493,1032.3284 q 1.442253,-1.3521 3.177464,-2.5916 10.63662,-7.707 25.667606,-7.707 15.05352,0 25.69014,7.707 1.71268,1.2395 3.15493,2.5691 l 0,13.0028 q 0,3.8986 -3.89859,3.8986 l -49.892959,0 q -3.898591,0 -3.898591,-3.8986 l 0,-12.9803"
       id="path3327"
       inkscape:connector-curvature="0"
       style="fill:#4178c2;stroke:none"
       inkscape:export-filename="/home/jutice/Documents/projects/engine/examples/public/path3333.png"
       inkscape:export-xdpi="90"
       inkscape:export-ydpi="90" />
    <path
       d="m 103.5493,1032.5087 q 0.72112,0.7211 0.31549,2.1183 -0.3831,1.3972 -1.62254,2.6366 l -0.0676,0.068 q -0.69859,0.6761 -1.66761,0.6761 -1.014082,0 -1.735209,-0.7212 -0.698592,-0.7211 -0.698592,-1.7126 0,-0.9916 0.676057,-1.6902 l 0.06761,-0.068 q 1.239444,-1.2394 2.636624,-1.6225 1.37465,-0.3831 2.09578,0.3155 m -10.298601,4.7774 q -0.721127,0.7212 -1.735211,0.7212 -0.969014,0 -1.690141,-0.6761 l -0.04507,-0.068 q -1.261972,-1.2394 -1.645071,-2.6366 -0.383098,-1.3972 0.338028,-2.1183 0.698592,-0.6986 2.095775,-0.3155 1.397183,0.3831 2.63662,1.6225 l 0.06761,0.068 q 0.676057,0.6986 0.676057,1.6902 0,0.9915 -0.698592,1.7126"
       id="path3329"
       inkscape:connector-curvature="0"
       style="fill:#3164a8;stroke:none"
       inkscape:export-filename="/home/jutice/Documents/projects/engine/examples/public/path3333.png"
       inkscape:export-xdpi="90"
       inkscape:export-ydpi="90" />
    <path
       d="m 84.101408,1016.1932 0,0.1127 0,0.2704 q -0.157746,1.5324 -1.554929,2.6141 -1.55493,1.2169 -3.740845,1.2169 -2.185916,0 -3.740845,-1.2169 -1.397183,-1.0817 -1.532395,-2.6141 l -0.02253,-0.2704 0,-0.1127 0,-0.068 q 0.02253,-2.9747 1.55493,-5.0704 1.554929,-2.1409 3.740845,-2.1409 2.185915,0 3.740845,2.1409 1.532394,2.0957 1.554929,5.0704 l 0,0.068 m 33.352107,0 0,0.1127 0,0.2704 q -0.15775,1.5324 -1.55493,2.6141 -1.55493,1.2169 -3.74084,1.2169 -2.18592,0 -3.74085,-1.2169 -1.39718,-1.0817 -1.53239,-2.6141 l -0.0225,-0.2704 0,-0.1127 0,-0.068 q 0.0225,-2.9747 1.55493,-5.0704 1.55493,-2.1409 3.74085,-2.1409 2.18591,0 3.74084,2.1409 1.5324,2.0957 1.55493,5.0704 l 0,0.068"
       id="path3331"
       inkscape:connector-curvature="0"
       style="fill:#333333;stroke:none"
       inkscape:export-filename="/home/jutice/Documents/projects/engine/examples/public/path3333.png"
       inkscape:export-xdpi="90"
       inkscape:export-ydpi="90" />
    <path
       d="m 72.247887,1049.2073 0,-6.3099 q 0,-1.8028 1.802817,-1.8028 l 10.366197,0 q 1.802817,0 1.802817,1.8028 l 0,6.3099 -13.971831,0 m 33.667603,0 0,-6.3099 q 0,-1.8028 1.80282,-1.8028 l 10.3662,0 q 1.80281,0 1.80281,1.8028 l 0,6.3099 -13.97183,0"
       id="path3333"
       inkscape:connector-curvature="0"
       style="fill:#ffffff;stroke:none"
       inkscape:export-xdpi="90"
       inkscape:export-ydpi="90" />
  </g>
</svg>
